/* XPM */
static char *result[] = {
/* columns rows colors chars-per-pixel */
"29 50 131 2 ",
"   c #103A5F",
".  c #37384C",
"X  c #373B52",
"o  c #403D54",
"O  c #38405E",
"+  c #134169",
"@  c #13426C",
"#  c #15456F",
"$  c #154671",
"%  c #164977",
"&  c #174B79",
"*  c #2D4566",
"=  c #324462",
"-  c #344765",
";  c #284D77",
":  c #2A4E77",
">  c #2C4D75",
",  c #2D4D75",
"<  c #26507E",
"1  c #2B517C",
"2  c #2B527C",
"3  c #1A5080",
"4  c #1B5182",
"5  c #1C5386",
"6  c #215889",
"7  c #205F97",
"8  c #285E94",
"9  c #285F97",
"0  c #215F98",
"q  c #256097",
"w  c #2C6295",
"e  c #216099",
"r  c #21619A",
"t  c #23629B",
"y  c #23639D",
"u  c #24639D",
"i  c #22649F",
"p  c #23649F",
"a  c #24659F",
"s  c #2F6399",
"d  c #2D659C",
"f  c #366596",
"g  c #386493",
"h  c #2364A0",
"j  c #2365A0",
"k  c #2365A1",
"l  c #2766A0",
"z  c #2A67A0",
"x  c #2A67A1",
"c  c #2569A5",
"v  c #2668A4",
"b  c #2669A4",
"n  c #2669A5",
"m  c #276BA6",
"M  c #2F6AA1",
"N  c #2A6AA4",
"B  c #296CA7",
"V  c #2C6CA7",
"C  c #286CA8",
"Z  c #296CA8",
"A  c #296DA9",
"S  c #2A6DA8",
"D  c #296EAB",
"F  c #526882",
"G  c #436D95",
"H  c #496D90",
"J  c #48739F",
"K  c #5F80A1",
"L  c #758BA0",
"P  c #768DA1",
"I  c #7991A9",
"U  c #7090B2",
"Y  c #8397AC",
"T  c #8599AC",
"R  c #879AAD",
"E  c #8899AC",
"W  c #9C9DA2",
"Q  c #8298B2",
"!  c #98A4B1",
"~  c #96A7B9",
"^  c #9FADBB",
"/  c #9DACBC",
"(  c #A6A5A9",
")  c #ACACAE",
"_  c #ADADB0",
"`  c #AEACB1",
"'  c #AFAFB3",
"]  c #A2ACB8",
"[  c #A7B0BB",
"{  c #A4B0BD",
"}  c #A9B2BD",
"|  c #B6B5B8",
" . c #B0B5BF",
".. c #B6B5BC",
"X. c #B9B8BB",
"o. c #B9B9BB",
"O. c #BABABB",
"+. c #AAB5C3",
"@. c #BEBEC0",
"#. c #BABFC9",
"$. c #C2C1C4",
"%. c #C3C3C6",
"&. c #C3C2C7",
"*. c #C6C3C6",
"=. c #C5C5C7",
"-. c #C6C4C6",
";. c #C6C4C8",
":. c #C7C6CB",
">. c #C3C5CD",
",. c #CAC7CB",
"<. c #CAC7CC",
"1. c #CAC8CB",
"2. c #CAC9CC",
"3. c #CBC8CD",
"4. c #CBC9CD",
"5. c #C9C9CF",
"6. c #D0D1D4",
"7. c #D5D3D8",
"8. c #D3D5D9",
"9. c #D7D5DB",
"0. c #D5D6DB",
"q. c #D7D6DB",
"w. c #D8D6DB",
"e. c #D9D8DC",
"r. c #D8D9DD",
"t. c #DDDBDF",
"y. c #DDDCDF",
"u. c #DDDAE0",
"i. c #DEDDE0",
"p. c #DEDCE1",
"a. c None",
/* pixels */
"a.a.a.a.a.a.a.a.a.a.a.a.a.a.a.a.a.a.a.a.a.a.a.a.a.a.a.a.a.",
"a.a.a.a.a.a.a.a.a.a.a.a.a.a.a.a.a.a.a.a.a.a.a.a.a.a.a.a.a.",
"a.a.a.a.a.a.a.a.a.a.a.a.a.a.a.a.a.a.a.a.a.a.a.a.a.a.a.a.a.",
"a.a.a.a.a.a.a.a.a.a.a.a.a.a.a.a.a.a.a.a.a.a.a.a.a.a.a.a.a.",
"a.a.a.a.a.a.a.a.a.a.a.a.a.a.a.a.a.a.a.a.a.a.a.a.a.a.a.a.a.",
"a.a.a.a.a.a.a.a.a.a.a.a.a.a.a.a.a.a.a.a.a.a.a.a.a.a.a.a.a.",
"a.a.a.a.a.a.a.a.a.a.a.a.a.a.a.a.a.a.a.a.a.a.a.a.a.a.a.a.a.",
"a.a.a.a.a.a.a.a.a.a.a.a.a.a.a.a.a.a.a.a.a.a.a.a.a.a.a.a.a.",
"a.a.a.a.a.a.a.a.a.a.a.a.a.a.a.a.a.a.a.a.a.a.a.a.a.a.a.a.a.",
"a.a.a.a.a.a.a.a.a.a.a.a.a.a.a.a.a.a.a.a.a.a.a.a.a.a.a.a.a.",
"a.a.a.a.a.a.a.a.a.a.a.a.a.a.a.a.a.a.a.a.a.a.a.a.a.a.a.a.a.",
"a.a.a.a.a.a.a.a.a.a.a.a.a.a.a.a.a.a.a.a.a.a.a.a.a.a.a.a.a.",
"a.a.a.a.a.a.a.a.a.a.a.a.a.a.a.a.a.a.a.a.a.a.a.a.a.a.a.a.a.",
"a.a.a.a.a.a.a.a.a.a.a.a.a.a.a.a.a.a.a.a.a.a.a.a.a.a.a.a.a.",
"a.a.a.a.a.a.a.a.a.a.a.a.a.a.a.a.a.a.a.a.a.a.a.a.a.a.a.a.a.",
"a.a.a.a.a.a.a.a.a.a.a.a.a.( ;.a.a.a.a.a.a.a.a.a.a.a.a.a.a.",
"a.a.a.a.a.a.a.a.a.a.a.@.t.u.e.9.a.a.a.a.a.a.a.a.a.a.a.a.a.",
"a.a.a.a.a.a.a.a.a.a.` 4.7.w.p.q.W a.a.a.a.a.a.a.a.a.a.a.a.",
"a.a.a.a.a.a.a.a.a.a.$.3.#.+.6.y.' a.a.a.a.a.a.a.a.a.a.a.a.",
"a.a.a.a.a.a.a.a.a.a.=.:.] L } i.) a.a.a.a.a.a.a.a.a.a.a.a.",
"a.a.a.a.a.a.a.a.a.a.%.<.! P { y._ a.a.a.a.a.a.a.a.a.a.a.a.",
"a.a.a.a.a.a.a.a.a.a.-.2.[ T ^ 0.o.a.a.a.a.a.a.a.a.a.a.a.a.",
"a.a.a.a.a.a.a.a.a.a.*.,.>.Y ~ 8.O.a.a.a.a.a.a.a.a.a.a.a.a.",
"a.a.a.a.a.a.a.a.a.a.-.1.#.R / r.| a.a.a.a.a.a.a.a.a.a.a.a.",
"a.a.a.a.a.a.a.a.a.a.X.&. .I E 5...a.a.a.a.a.a.a.a.a.a.a.a.",
"a.a.a.a.a.a.a.a.a.a.F Q K H G U J a.a.a.a.a.a.a.a.a.a.a.a.",
"a.a.a.a.a.a.a.a.a.a.: l x 6 m B s O a.a.a.a.a.a.a.a.a.a.a.",
"a.a.a.a.a.a.a.a.a.a.< i 0   3 n d o a.a.a.a.a.a.a.a.a.a.a.",
"a.a.a.a.a.a.a.a.a.a.; j e + & y A - a.a.a.a.a.a.a.a.a.a.a.",
"a.a.a.a.a.a.a.a.a.a., p 7 $ % a N = a.a.a.a.a.a.a.a.a.a.a.",
"a.a.a.a.a.a.a.a.a.a.2 k r # @ t z . a.a.a.a.a.a.a.a.a.a.a.",
"a.a.a.a.a.a.a.a.a.a.1 k h % $ p D a.a.a.a.a.a.a.a.a.a.a.a.",
"a.a.a.a.a.a.a.a.a.a.> u p 5 4 a Z a.a.a.a.a.a.a.a.a.a.a.a.",
"a.a.a.a.a.a.a.a.a.a.* q c b b C M a.a.a.a.a.a.a.a.a.a.a.a.",
"a.a.a.a.a.a.a.a.a.a.a.8 v A D V f a.a.a.a.a.a.a.a.a.a.a.a.",
"a.a.a.a.a.a.a.a.a.a.a.a.9 w S g a.a.a.a.a.a.a.a.a.a.a.a.a.",
"a.a.a.a.a.a.a.a.a.a.a.a.a.X a.a.a.a.a.a.a.a.a.a.a.a.a.a.a.",
"a.a.a.a.a.a.a.a.a.a.a.a.a.a.a.a.a.a.a.a.a.a.a.a.a.a.a.a.a.",
"a.a.a.a.a.a.a.a.a.a.a.a.a.a.a.a.a.a.a.a.a.a.a.a.a.a.a.a.a.",
"a.a.a.a.a.a.a.a.a.a.a.a.a.a.a.a.a.a.a.a.a.a.a.a.a.a.a.a.a.",
"a.a.a.a.a.a.a.a.a.a.a.a.a.a.a.a.a.a.a.a.a.a.a.a.a.a.a.a.a.",
"a.a.a.a.a.a.a.a.a.a.a.a.a.a.a.a.a.a.a.a.a.a.a.a.a.a.a.a.a.",
"a.a.a.a.a.a.a.a.a.a.a.a.a.a.a.a.a.a.a.a.a.a.a.a.a.a.a.a.a.",
"a.a.a.a.a.a.a.a.a.a.a.a.a.a.a.a.a.a.a.a.a.a.a.a.a.a.a.a.a.",
"a.a.a.a.a.a.a.a.a.a.a.a.a.a.a.a.a.a.a.a.a.a.a.a.a.a.a.a.a.",
"a.a.a.a.a.a.a.a.a.a.a.a.a.a.a.a.a.a.a.a.a.a.a.a.a.a.a.a.a.",
"a.a.a.a.a.a.a.a.a.a.a.a.a.a.a.a.a.a.a.a.a.a.a.a.a.a.a.a.a.",
"a.a.a.a.a.a.a.a.a.a.a.a.a.a.a.a.a.a.a.a.a.a.a.a.a.a.a.a.a.",
"a.a.a.a.a.a.a.a.a.a.a.a.a.a.a.a.a.a.a.a.a.a.a.a.a.a.a.a.a.",
"a.a.a.a.a.a.a.a.a.a.a.a.a.a.a.a.a.a.a.a.a.a.a.a.a.a.a.a.a."
};
