/* XPM */
static char *_f6502c0bde145759ed6ccfc20afd224Vbl0HT7jx5moAI9O[] = {
/* columns rows colors chars-per-pixel */
"29 50 134 2 ",
"   c None",
".  c #103A5E",
"X  c #37374B",
"o  c #373B51",
"O  c #403D54",
"+  c #38415E",
"@  c #134169",
"#  c #13416A",
"$  c #14446F",
"%  c #15456F",
"&  c #154671",
"*  c #164976",
"=  c #164977",
"-  c #174B78",
";  c #1A4F7F",
":  c #2D4363",
">  c #324562",
",  c #354766",
"<  c #284E77",
"1  c #2A4E77",
"2  c #2D4C74",
"3  c #2D4D75",
"4  c #26507E",
"5  c #2B527C",
"6  c #2C517C",
"7  c #1A5080",
"8  c #1B5284",
"9  c #21588A",
"0  c #205F97",
"q  c #275F97",
"w  c #285E93",
"e  c #215F98",
"r  c #256097",
"t  c #21609A",
"y  c #21619A",
"u  c #23629B",
"i  c #23639D",
"p  c #24639D",
"a  c #22649F",
"s  c #23649F",
"d  c #24649E",
"f  c #24659F",
"g  c #2B649A",
"h  c #2F6499",
"j  c #2D669C",
"k  c #366596",
"l  c #386493",
"z  c #2365A0",
"x  c #2365A1",
"c  c #2766A0",
"v  c #2A67A1",
"b  c #2668A3",
"n  c #2569A5",
"m  c #2669A4",
"M  c #2669A5",
"N  c #276BA6",
"B  c #2A69A3",
"V  c #2E6AA2",
"C  c #2A6BA6",
"Z  c #296CA7",
"A  c #296CA8",
"S  c #286CA9",
"D  c #2B6DA9",
"F  c #296EAA",
"G  c #296EAB",
"H  c #2A6EAB",
"J  c #526882",
"K  c #436D95",
"L  c #496D90",
"P  c #47739F",
"I  c #71889D",
"U  c #5F80A1",
"Y  c #758CA1",
"T  c #7991A9",
"R  c #7090B2",
"E  c #999A9F",
"W  c #8296AB",
"Q  c #8599AC",
"!  c #8699AD",
"~  c #8899AC",
"^  c #8499B3",
"/  c #96A2B0",
"(  c #96A7B9",
")  c #9FADBB",
"_  c #9DACBC",
"`  c #A6A5A8",
"'  c #ABABAD",
"]  c #ACACAF",
"[  c #A0AAB7",
"{  c #ADACB0",
"}  c #AFAFB2",
"|  c #A6B0BB",
" . c #A5B1BE",
".. c #A9B2BD",
"X. c #B6B5B8",
"o. c #B0B5BF",
"O. c #B6B5BC",
"+. c #B8B8BB",
"@. c #BABABB",
"#. c #BAB9BC",
"$. c #BABABC",
"%. c #A6B3C1",
"&. c #BEBEC1",
"*. c #B8BEC8",
"=. c #BABFC9",
"-. c #C2C1C4",
";. c #C3C3C6",
":. c #C3C2C7",
">. c #C6C3C6",
",. c #C5C5C7",
"<. c #C6C4C6",
"1. c #C6C5CA",
"2. c #C3C5CD",
"3. c #C8C7CA",
"4. c #CAC7CB",
"5. c #CAC7CC",
"6. c #CAC8CB",
"7. c #CAC9CC",
"8. c #CBC8CD",
"9. c #C9C9CF",
"0. c #CECCD0",
"q. c #D1D1D4",
"w. c #D5D3D8",
"e. c #D4D5D9",
"r. c #D7D5DB",
"t. c #D6D7DB",
"y. c #D8D6DB",
"u. c #D8D7DC",
"i. c #D9D9DD",
"p. c #DBD9DE",
"a. c #DEDDE0",
"s. c #DFDEE1",
"d. c #DFDDE2",
"f. c #E1DEE4",
/* pixels */
"                                                          ",
"                                                          ",
"                                                          ",
"                                                          ",
"                                                          ",
"                                                          ",
"                                                          ",
"                                                          ",
"                                                          ",
"                                                          ",
"                                                          ",
"                                                          ",
"                                                          ",
"                                                          ",
"                                                          ",
"                                                          ",
"                                                          ",
"                                                          ",
"                                                          ",
"                                                          ",
"                                                          ",
"                                                          ",
"                              + O , > X                   ",
"            E } ' ] #.@.X.O.P h j G C B G G V k           ",
"          t.u.s.s.s.t.t.i.7.R Z M i d y s d G G l         ",
"        4.i.s.q... .) ( _ ~ K M 7 - * # $ ; b G G         ",
"        ` f.y.%.I Y Q W Q T L 9 . # & $ * 8 M G g o       ",
"          s.w.=.[ / | 2.=.o.U v e y 0 y x s M M q         ",
"          &.0.7.1.5.7.4.6.:.^ c s x s x x p r w           ",
"          @.} :.,.:.>.,.>.#.J < 4 < 3 5 6 3 :             ",
"                                                          ",
"                                                          ",
"                                                          ",
"                                                          ",
"                                                          ",
"                                                          ",
"                                                          ",
"                                                          ",
"                                                          ",
"                                                          ",
"                                                          ",
"                                                          ",
"                                                          ",
"                                                          ",
"                                                          ",
"                                                          ",
"                                                          ",
"                                                          ",
"                                                          ",
"                                                          "
};
