/* XPM */
static char *de16443d2d664351e196dce43dbd98d51VhQvRYD15FIbJhk[] = {
/* columns rows colors chars-per-pixel */
"29 50 128 2 ",
"   c None",
".  c #0A2E4C",
"X  c #0E3659",
"o  c #103A5F",
"O  c #37374B",
"+  c #353B4F",
"@  c #38384C",
"#  c #2B3B58",
"$  c #2F3D58",
"%  c #2C3F5E",
"&  c #113E67",
"*  c #403D53",
"=  c #38415D",
"-  c #13416B",
";  c #14436D",
":  c #164976",
">  c #184A77",
",  c #164B7A",
"<  c #194E7D",
"1  c #184D7E",
"2  c #184E7E",
"3  c #2F4669",
"4  c #314869",
"5  c #2D4D74",
"6  c #4D4F5B",
"7  c #696367",
"8  c #7B7B7D",
"9  c #7E7E7E",
"0  c #2D5B88",
"q  c #3F5B81",
"w  c #205B91",
"e  c #205E96",
"r  c #295D91",
"t  c #2C5E92",
"y  c #3D618C",
"u  c #21619C",
"i  c #22639F",
"p  c #23649E",
"a  c #22649F",
"s  c #2A649A",
"d  c #34689C",
"f  c #396C9E",
"g  c #3E6E9D",
"h  c #2264A0",
"j  c #2364A0",
"k  c #2365A0",
"l  c #2265A1",
"z  c #2365A1",
"x  c #2366A2",
"c  c #2466A2",
"v  c #2568A4",
"b  c #2669A5",
"n  c #266AA6",
"m  c #266AA7",
"M  c #276BA7",
"N  c #2A6BA6",
"B  c #296CA8",
"V  c #286CA9",
"C  c #296CA9",
"Z  c #286DA9",
"A  c #2A6DA8",
"S  c #296DAA",
"D  c #296EAB",
"F  c #3C71A4",
"G  c #53718F",
"H  c #59748C",
"J  c #7F7F81",
"K  c #62809B",
"L  c #6F849A",
"P  c #7D8EA0",
"I  c #7F92A4",
"U  c #7D93A7",
"Y  c #7A93AB",
"T  c #7994AF",
"R  c #848589",
"E  c #888A8D",
"W  c #8D8D8F",
"Q  c #8C9DAF",
"!  c #8DA2B7",
"~  c #8EA3B9",
"^  c #A2A2A5",
"/  c #A0AAB7",
"(  c #AFB0B3",
")  c #AEB2BE",
"_  c #B9B9BC",
"`  c #AFB6C0",
"'  c #B6BAC2",
"]  c #B0B9C7",
"[  c #B6BDC6",
"{  c #C2C1C5",
"}  c #C2C3C5",
"|  c #C5C2C5",
" . c #C5C3C5",
".. c #C4C2C6",
"X. c #C0C4CE",
"o. c #CAC7CB",
"O. c #C8C7CC",
"+. c #C9C7CC",
"@. c #CAC7CC",
"#. c #CBC8CC",
"$. c #CBC8CD",
"%. c #CAC9CD",
"&. c #CBC8CE",
"*. c #CAC9CE",
"=. c #CCCBCE",
"-. c #CFCBD2",
";. c #CCCCD2",
":. c #CDCFD3",
">. c #CFCFD2",
",. c #D0CED3",
"<. c #D1CFD3",
"1. c #D0D0D2",
"2. c #D1D0D4",
"3. c #DAD8DD",
"4. c #DBDADE",
"5. c #DCDBDF",
"6. c #DCDCDF",
"7. c #DDDCE1",
"8. c #DEDDE0",
"9. c #DEDDE1",
"0. c #DEDEE1",
"q. c #DFDEE1",
"w. c #DFDEE2",
"e. c #DFDEE3",
"r. c #E0DFE2",
"t. c #E2DFE5",
"y. c #E1E0E5",
"u. c #E2E0E5",
/* pixels */
"                                                          ",
"                                                          ",
"                                                          ",
"                                                          ",
"                                                          ",
"                                                          ",
"                                                          ",
"                                                          ",
"                                                          ",
"                                                          ",
"                                                          ",
"                                                          ",
"                                                          ",
"                                                          ",
"                                                          ",
"                                                          ",
"                                                          ",
"                                      q d y               ",
"                                    N D D D D @           ",
"                                O D D M M D D t           ",
"                              + D D z - w M D u           ",
"                            * D D p ; & : M z r           ",
"                          = D D e , o > z z z $           ",
"                        7 F D z < X < z z z 5             ",
"                      8 5.-.g M . < z z z 4               ",
"                    9 6.r.' G 0 c z z p 3                 ",
"                  E q.q.` ! Y P f z u %                   ",
"                W q.q.[ T L ] #.) s #                     ",
"              R q.q.;.K Q X.#.#. .6                       ",
"              ;.u.1.H I I =.o. .                          ",
"              3.u.2.~ / #.+. .                            ",
"              <.t.3.;.#.+.}                               ",
"              J q.q.<.+.}                                 ",
"                  ( _ ^                                   ",
"                                                          ",
"                                                          ",
"                                                          ",
"                                                          ",
"                                                          ",
"                                                          ",
"                                                          ",
"                                                          ",
"                                                          ",
"                                                          ",
"                                                          ",
"                                                          ",
"                                                          ",
"                                                          ",
"                                                          ",
"                                                          "
};
