/* XPM */
static char *b4d303c4f6cd481bf4b5cd034a3b3ff8wwryvojBz5zAQ8qH[] = {
/* columns rows colors chars-per-pixel */
"35 55 128 2 ",
"   c None",
".  c #0C0A06",
"X  c #0F0B09",
"o  c #100B06",
"O  c #130D09",
"+  c #190F0A",
"@  c #16110C",
"#  c #1C120C",
"$  c #1B1512",
"%  c #1F1810",
"&  c #22160E",
"*  c #23180E",
"=  c #2A1B0F",
"-  c #201710",
";  c #251911",
":  c #2C1D13",
">  c #251D18",
",  c #321F12",
"<  c #2D2116",
"1  c #332215",
"2  c #3C2515",
"3  c #3F2817",
"4  c #332419",
"5  c #3C2619",
"6  c #3E2E1C",
"7  c #3E2E1D",
"8  c #3F2F1E",
"9  c #3C291B",
"0  c #3F301E",
"q  c #402716",
"w  c #412716",
"e  c #412717",
"r  c #412816",
"t  c #412916",
"y  c #402817",
"u  c #412817",
"i  c #402917",
"p  c #412917",
"a  c #432816",
"s  c #422817",
"d  c #422917",
"f  c #432B17",
"g  c #442A17",
"h  c #452B17",
"j  c #412918",
"k  c #422818",
"l  c #422918",
"z  c #432918",
"x  c #422A18",
"c  c #432A18",
"v  c #422B18",
"b  c #412A1A",
"n  c #452918",
"m  c #452A18",
"M  c #452B18",
"N  c #462B18",
"B  c #462B19",
"V  c #452A1A",
"C  c #432D1D",
"Z  c #402F1C",
"A  c #402F1D",
"S  c #432F1D",
"D  c #462E1C",
"F  c #412E1C",
"G  c #482C18",
"H  c #482D18",
"J  c #482E19",
"K  c #482C1A",
"L  c #482F1A",
"P  c #4C2E1A",
"I  c #4D2F1B",
"U  c #4C2E19",
"Y  c #43321D",
"T  c #40301E",
"R  c #40301F",
"E  c #42311E",
"W  c #43321F",
"Q  c #44321D",
"!  c #47301E",
"~  c #45331E",
"^  c #44321F",
"/  c #45331F",
"(  c #46331F",
")  c #46341F",
"_  c #47341F",
"`  c #44321D",
"'  c #4D301A",
"]  c #4F301B",
"[  c #4B301D",
"{  c #48341F",
"}  c #49351F",
"|  c #4A351F",
" . c #4A361F",
".. c #4A341E",
"X. c #513019",
"o. c #51301B",
"O. c #51311B",
"+. c #55321B",
"@. c #50311C",
"#. c #50321C",
"$. c #54321C",
"%. c #56331D",
"&. c #57341C",
"*. c #56351D",
"=. c #55361F",
"-. c #57361F",
";. c #58351C",
":. c #59351E",
">. c #453320",
",. c #453420",
"<. c #463520",
"1. c #483620",
"2. c #4A3721",
"3. c #4C3720",
"4. c #4B3620",
"5. c #4B3821",
"6. c #4C3820",
"7. c #4E3921",
"8. c #4E3A22",
"9. c #4F3921",
"0. c #553621",
"q. c #583721",
"w. c #513B21",
"e. c #513B23",
"r. c #543D23",
"t. c #563E24",
"y. c #523B22",
"u. c #5C3E24",
/* pixels */
"                                                                      ",
"                                                                      ",
"                                                                      ",
"                                                                      ",
"                                                                      ",
"                                                                      ",
"                                                                      ",
"                                                                      ",
"                                                                      ",
"                                                                      ",
"                                                                      ",
"                            4 2 2 2 2 2 4                             ",
"                    <       1 3 3 2 2 2 :       <                     ",
"                D r 3 1   @ : 2 3 3 3 2 : @   < c r 3                 ",
"              3 r c n r ; # ; c c 3 3 r ; # & 3 3 w c r               ",
"              : n r H r 1 : 1 3 3 3 3 w , : 2 H n r n :               ",
"              1 c H h r 2 1 : * < < 4 & ; 1 1 r c H r 2               ",
"      3 3   & ; 3 w 1 ; # # # # 7 9 9 + # # # & , r 2 = ;   3 c       ",
"      +.o.I , * 1 : # + # # # # | 7 7 # # # # # # : 2 ; 1 #.] o.      ",
"    ( %.*.%.#.& # # # + # # # # S | ( # # # # # # # # & I o.;.*.n     ",
"    S h 2 1 : X               O S S E                 O = 1 , n 3     ",
"      ; # # #                   | ) 0                 o # # # 3       ",
"      > # # ;                   8.( >.                o ; # # 2       ",
"      > # * &                   E E ,.                o * # # r       ",
"      > < 1 1                   E ( ,.                O 4 4 : H       ",
"      1 & & &                   ( ,.8.                o ; & # [       ",
"      : & & ;                   t.( 5.                o ; # # ]       ",
"      , & # #                   w.( E                 o # # # q.      ",
"      9 # # #                   8.( 2.                o # # # *.      ",
"      5 # # #                   w.2.r.                o # # # *.      ",
"      1 # # #                   ) | 3.                o # # # ;.      ",
"      9 # # #                   S ) S                 O # # + u.      ",
"      7 # # #                   3 S 3                 X # # + u.      ",
"      1 # ; -                   | 2.(                 X ; # + 0.      ",
"      9 # # #                   r.y.w.                X # # + I       ",
"      S < > <                   w.w.t.                o > < > [       ",
"      1 # ; #                   8.w.3.                X # # O c       ",
"      = + # #                   t.w.(                 X % o O 3       ",
"      = + + @                   8.| |                 X O o o 1       ",
"      * O + @                   ) E (                 . O o o :       ",
"      * O + +                   Y S (                 . o o X =       ",
"      # O O O                   E S S                 . X X X ;       ",
"      & * * $                                           @ & # #       ",
"                                                                      ",
"                                                                      ",
"                                                                      ",
"                                                                      ",
"                                                                      ",
"                                                                      ",
"                                                                      ",
"                                                                      ",
"                                                                      ",
"                                                                      ",
"                                                                      ",
"                                                                      "
};
