/* XPM */
static char *result[] = {
/* columns rows colors chars-per-pixel */
"29 50 184 2 ",
"   c #040101",
".  c #0B0000",
"X  c #120406",
"o  c #190A07",
"O  c #160609",
"+  c #1B0A0B",
"@  c #170505",
"#  c #150A16",
"$  c #14121A",
"%  c #181318",
"&  c #220F0C",
"*  c #29140E",
"=  c #24110D",
"-  c #230D13",
";  c #2B1416",
":  c #2D151C",
">  c #261619",
",  c #30161B",
"<  c #3B1F1B",
"1  c #3E231C",
"2  c #0D0628",
"3  c #12042E",
"4  c #0B0430",
"5  c #16003C",
"6  c #14043B",
"7  c #1E182C",
"8  c #231D26",
"9  c #3C1A26",
"0  c #3F1D2A",
"q  c #33202C",
"w  c #3F3433",
"e  c #540715",
"r  c #700003",
"t  c #4A1A2D",
"y  c #4B2A23",
"u  c #432528",
"i  c #572822",
"p  c #543122",
"a  c #4A2432",
"s  c #552639",
"d  c #542A3B",
"f  c #59283B",
"g  c #493A37",
"h  c #5E3239",
"j  c #62263F",
"k  c #70393D",
"l  c #315022",
"z  c #6D432F",
"x  c #774737",
"c  c #64493C",
"v  c #0F154C",
"b  c #30155C",
"n  c #1A016D",
"m  c #170073",
"M  c #2E007E",
"N  c #34067D",
"B  c #3D0F75",
"V  c #3D1B7B",
"C  c #48005A",
"Z  c #5D2A41",
"A  c #443F44",
"S  c #50394C",
"D  c #662B48",
"F  c #663543",
"G  c #723F45",
"H  c #6A3659",
"J  c #5C0066",
"K  c #4D1D6D",
"L  c #521F6F",
"P  c #50397C",
"I  c #522D77",
"U  c #612C60",
"Y  c #683076",
"T  c #5F474F",
"R  c #49425B",
"E  c #434555",
"W  c #50485C",
"Q  c #744143",
"!  c #7B4255",
"~  c #5D5575",
"^  c #515A73",
"/  c #564771",
"(  c #7B5E6D",
")  c #784660",
"_  c #6B637C",
"`  c #A20018",
"'  c #93002C",
"]  c #9B1026",
"[  c #8F1B33",
"{  c #AF0038",
"}  c #B31B29",
"|  c #9A2D3E",
" . c #C60010",
".. c #E30006",
"X. c #E4090C",
"o. c #C73339",
"O. c #854C37",
"+. c #875237",
"@. c #920B51",
"#. c #862544",
"$. c #BB3E49",
"%. c #8C5845",
"&. c #854A57",
"*. c #854B58",
"=. c #8E5250",
"-. c #945558",
";. c #884F4B",
":. c #A05E59",
">. c #A9694A",
",. c #B8614E",
"<. c #A96657",
"1. c #BB735B",
"2. c #BC7556",
"3. c #B96B55",
"4. c #92506A",
"5. c #845F71",
"6. c #9F7078",
"7. c #837B7E",
"8. c #A96A6A",
"9. c #C7504A",
"0. c #CB7153",
"q. c #F3B305",
"w. c #B78574",
"e. c #D3855D",
"r. c #D28865",
"t. c #DD966E",
"y. c #CA8D75",
"u. c #C68873",
"i. c #CC967B",
"p. c #E1A07E",
"a. c #2C0082",
"s. c #21009F",
"d. c #3D258E",
"f. c #1F00A5",
"g. c #1700BB",
"h. c #2000A3",
"j. c #311EA4",
"k. c #3C26A2",
"l. c #5F3397",
"z. c #433289",
"x. c #602F87",
"c. c #455493",
"v. c #684F97",
"b. c #756F9F",
"n. c #0803D6",
"m. c #1309D2",
"M. c #0032D3",
"N. c #1210E8",
"B. c #0025F7",
"V. c #003DF7",
"C. c #0621E8",
"Z. c #0150DD",
"A. c #3272E0",
"S. c #4C78C8",
"D. c #88798B",
"F. c #9E7E82",
"G. c #A47D80",
"H. c #6D86B6",
"J. c #70A3F6",
"K. c #8D879D",
"L. c #918A9F",
"P. c #999195",
"I. c #BA8989",
"U. c #A08E91",
"Y. c #BA9395",
"T. c #9F99A7",
"R. c #BDA3AD",
"E. c #AAA6A6",
"W. c #D39D8B",
"Q. c #D9A48E",
"!. c #DFA991",
"~. c #E7AA89",
"^. c #F4BE9A",
"/. c #EAB394",
"(. c #F7BDBD",
"). c #F7C19E",
"_. c #8E93C2",
"`. c #91B7F7",
"'. c #D6CFCD",
"]. c #D5D2D2",
"[. c #F7F2EF",
"{. c gray97",
"}. c #F4EAE4",
"|. c None",
/* pixels */
"|.|.|.|.|.|.|.|.|.|.|.|.|.|.|.|.|.|.|.|.|.|.|.|.|.|.|.|.|.",
"|.|.|.|.|.|.|.|.|.|.|.|.|.|.|.|.|.|.|.|.|.|.|.|.|.|.|.|.|.",
"|.|.|.|.|.|.|.|.|.|.|.|.|.|.|.|.|.|.|.|.|.|.|.|.|.|.|.|.|.",
"|.|.|.|.|.|.|.|.|.|.|.|.|.|.|.|.|.|.|.|.|.|.|.|.|.|.|.|.|.",
"|.|.|.|.|.|.|.|.|.|.|.|.|.|.|.|.|.|.|.|.|.|.|.|.|.|.|.|.|.",
"|.|.|.|.|.|.|.|.|.|.|.|.|.|.|.|.|.|.|.|.|.|.|.|.|.|.|.|.|.",
"|.|.|.|.|.|.|.|.|.|.|.|.|.|.|.|.|.|.|.|.|.|.|.|.|.|.|.|.|.",
"|.|.|.|.|.|.|.|.|.|.|.|.|.|.|.|.|.|.|.|.|.|.|.|.|.|.|.|.|.",
"|.|.|.|.|.|.|.|.|.|.|.|.|.|.|.|.|.|.|.|.|.|.|.|.|.|.|.|.|.",
"|.|.|.|.|.|.|.|.|.|.|.|.|.|.Z D s f s Z j |.|.|.D 8 |.|.|.",
"|.|.|.|.|.|.|.|.|.|.|.|.|.Z 0 0 . . . - u t D 9 :   |.|.|.",
"|.|.|.|.|.|.|.|.|.p & , F + . . . . . . . . - a . |.|.|.|.",
"|.|.|.|.|.|.|.|.|.|.O.. . . . . . . . . . . . . . . |.|.|.",
"|.|.|.|.|.|.|.|.& = f . . . . . . . . . . . . . .   |.|.|.",
"|.|.|.|.|.|.|.* f : O . . . . . . . . . . . . . . .   |.|.",
"|.|.|.|.|.|.+.+.. . . . . . . . . . . . . . . . . .   |.|.",
"|.|.|.|.|.k +.& .   . .   d , . . . . . . . . . . .   |.|.",
"|.|.|.|.|.t .   l F O O k d + . X O . . . . . . . .   |.|.",
"|.|.|.|.|.; |.|.s + . y x + Q ; 1 y . . p X . . .   |.|.|.",
"|.|.|.|.|.|.|.|.> > o = o F 2.Q y =.+ . h x . . X O |.|.|.",
"|.|.|.|.|.|.|.|.|.g i.z 1 w > ( / <.=.7 S S T u q y.c |.|.",
"|.|.|.|.|.|.|.|.|.%.r.;.>.].H.^ _.-.-.c.c.E.].y.k 2.i.@ |.",
"|.|.|.|.|.|.|.|.|.z 0.! <.}.`.A.F.I.W.5.S.J.{.y.-.e.w.|.|.",
"|.|.|.|.|.|.|.|.|.|.z :.! I.R.R.8.Q./.<.Y.R.W.) &.%.|.|.|.",
"|.|.|.|.|.|.|.|.|.|.|.1 1 ! u.W.!.).).!.Q.i.-.9 ; : |.|.|.",
"|.|.|.|.|.|.|.|.|.|.|.|.3 v U 9.0.1.1.3.,.| e j.d.; |.|.|.",
"|.|.|.|.|.|.|.|.|.|.|.v M.N.f.' ..[ } ] ` ..e >.e.1.& |.|.",
"|.|.|.|.|.|.|.|.|.|.v Z.B.n.g.{  .D 6.G.#...r >.e.e.* |.|.",
"|.|.|.|.|.|.|.|.|.3 M.B.n.Y l.@.C M P D.k.J e u +.+.* |.|.",
"|.|.|.|.|.|.|.|.|.4 n.V.v.~.~.8.N M N V m.h.5 |.|.|.|.|.|.",
"|.|.|.|.|.|.|.|.|.|.n C.D.^.^.r.N M M f.s.M 5 |.|.|.|.|.|.",
"|.|.|.|.|.|.|.|.|.|.|.m x.~.t.4.M M B %.K a.5 |.|.|.|.|.|.",
"|.|.|.|.|.|.|.|.|.|.|.3 2 L L a.N a.L q.H M 5 |.|.|.|.|.|.",
"|.|.|.|.|.|.|.|.|.|.|.|.|.% z.K h.N.L.D.~ b # |.|.|.|.|.|.",
"|.|.|.|.|.|.|.|.|.|.|.|.|.|.R ~ z.b.9.o.) E |.|.|.|.|.|.|.",
"|.|.|.|.|.|.|.|.|.|.|.|.|.|.|.+ t $.G.Y.U.W % |.|.|.|.|.|.",
"|.|.|.|.|.|.|.|.|.|.|.|.|.|.|.|.i (.{.{.].7.8 |.|.|.|.|.|.",
"|.|.|.|.|.|.|.|.|.|.|.|.|.|.|.|.g T.K.K.K.P.A |.|.|.|.|.|.",
"|.|.|.|.|.|.|.|.|.|.|.|.|.|.|.|.8 ~ ~ ~ ~ _ E |.|.|.|.|.|.",
"|.|.|.|.|.|.|.|.|.|.|.|.|.|.|.|.7 R ~ ~ ~ W 8 |.|.|.|.|.|.",
"|.|.|.|.|.|.|.|.|.|.|.|.|.|.|.|.|.% $ $ $ $ |.|.|.|.|.|.|.",
"|.|.|.|.|.|.|.|.|.|.|.|.|.|.|.|.|.|.|.|.|.|.|.|.|.|.|.|.|.",
"|.|.|.|.|.|.|.|.|.|.|.|.|.|.|.|.|.|.|.|.|.|.|.|.|.|.|.|.|.",
"|.|.|.|.|.|.|.|.|.|.|.|.|.|.|.|.|.|.|.|.|.|.|.|.|.|.|.|.|.",
"|.|.|.|.|.|.|.|.|.|.|.|.|.|.|.|.|.|.|.|.|.|.|.|.|.|.|.|.|.",
"|.|.|.|.|.|.|.|.|.|.|.|.|.|.|.|.|.|.|.|.|.|.|.|.|.|.|.|.|.",
"|.|.|.|.|.|.|.|.|.|.|.|.|.|.|.|.|.|.|.|.|.|.|.|.|.|.|.|.|.",
"|.|.|.|.|.|.|.|.|.|.|.|.|.|.|.|.|.|.|.|.|.|.|.|.|.|.|.|.|.",
"|.|.|.|.|.|.|.|.|.|.|.|.|.|.|.|.|.|.|.|.|.|.|.|.|.|.|.|.|.",
"|.|.|.|.|.|.|.|.|.|.|.|.|.|.|.|.|.|.|.|.|.|.|.|.|.|.|.|.|."
};
