/* XPM */
static char *result[] = {
/* columns rows colors chars-per-pixel */
"29 50 165 2 ",
"   c #0B0000",
".  c #0B0509",
"X  c #0E090D",
"o  c #070202",
"O  c #110406",
"+  c #16070A",
"@  c #19070B",
"#  c #13090B",
"$  c #1B0A0C",
"%  c #020019",
"&  c #280E17",
"*  c #320E17",
"=  c #2E1A15",
"-  c #2C141B",
";  c #251219",
":  c #331B14",
">  c #33161C",
",  c #3A221B",
"<  c #060227",
"1  c #15002D",
"2  c #16033E",
"3  c #1B003C",
"4  c #201925",
"5  c #3B1322",
"6  c #361A21",
"7  c #211135",
"8  c #27222F",
"9  c #362725",
"0  c #2C2735",
"q  c #322A3A",
"w  c #560017",
"e  c #660006",
"r  c #41231B",
"t  c #4A2B1E",
"y  c #421C2A",
"u  c #49252C",
"i  c #5E3B2C",
"p  c #54382A",
"a  c #492432",
"s  c #572A3B",
"d  c #5A2B3E",
"f  c #552635",
"g  c #5E3239",
"h  c #49342C",
"j  c #623D2C",
"k  c #633637",
"l  c #564137",
"z  c #6C432F",
"x  c #6F4233",
"c  c #72413D",
"v  c #090048",
"b  c #3F3A41",
"n  c #2E007E",
"m  c #2E0673",
"M  c #3A167C",
"N  c #5D2F42",
"B  c #533746",
"V  c #642A43",
"C  c #753D55",
"Z  c #430B70",
"A  c #500073",
"S  c #471975",
"D  c #50226C",
"F  c #473B61",
"G  c #462B79",
"H  c #4A4144",
"J  c #4A445D",
"K  c #7D474A",
"L  c #6F5445",
"P  c #605757",
"I  c #7A5758",
"U  c #4F4960",
"Y  c #534B65",
"T  c #534572",
"R  c #5D5575",
"E  c #674D68",
"W  c #734C6C",
"Q  c #6B637C",
"!  c #766368",
"~  c #850020",
"^  c #A10821",
"/  c #89283F",
"(  c #9A2235",
")  c #AD202E",
"_  c #DD0007",
"`  c #DC0008",
"'  c #E00007",
"]  c #C3342F",
"[  c #845239",
"{  c #AD7B2F",
"}  c #923449",
"|  c #854E43",
" . c #945A46",
".. c #864C58",
"X. c #965755",
"o. c #B64448",
"O. c #9C6048",
"+. c #A76648",
"@. c #BA7855",
"#. c #A96559",
"$. c #884C63",
"%. c #985E63",
"&. c #9C6367",
"*. c #9F666A",
"=. c #8D6174",
"-. c #837B7F",
";. c #A26B6D",
":. c #A8686A",
">. c #BE7C68",
",. c #A56571",
"<. c #AC7073",
"1. c #CB4C4C",
"2. c #C1775B",
"3. c #B68F50",
"4. c #B8886C",
"5. c #D2865E",
"6. c #C4836F",
"7. c #CA8C6E",
"8. c #D58E6B",
"9. c #CF9A7A",
"0. c #D79779",
"q. c #E09B74",
"w. c #0A038F",
"e. c #1E078B",
"r. c #2A0089",
"t. c #36008D",
"y. c #3D0685",
"u. c #0A0BA2",
"i. c #1A01A5",
"p. c #1D0BB9",
"a. c #2100A1",
"s. c #3C21A1",
"d. c #513F9B",
"f. c #234C99",
"g. c #4C628F",
"h. c #7B7087",
"j. c #6B7793",
"k. c #5C58B5",
"l. c #261CC6",
"z. c #0012F7",
"x. c #0826E4",
"c. c #0026F7",
"v. c #0035F7",
"b. c #003FF7",
"n. c #3A74D6",
"m. c #0C45E4",
"M. c #926885",
"N. c #957D96",
"B. c #7F80B2",
"V. c #9B9599",
"C. c #A4A0B1",
"Z. c #ABA5B8",
"A. c #EBAE88",
"S. c #EDB28D",
"D. c #E2AC93",
"F. c #EFB490",
"G. c #F7C29F",
"H. c #9BAECF",
"J. c #ACC8F7",
"K. c #CDC9C9",
"L. c #F1DCDC",
"P. c #F7E5DA",
"I. c gray94",
"U. c #E9E8E8",
"Y. c None",
/* pixels */
"Y.Y.Y.Y.Y.Y.Y.Y.Y.Y.Y.Y.Y.Y.Y.Y.Y.Y.Y.Y.Y.Y.Y.Y.Y.Y.Y.Y.Y.",
"Y.Y.Y.Y.Y.Y.Y.Y.Y.Y.Y.Y.Y.Y.Y.Y.Y.Y.Y.Y.Y.Y.Y.Y.Y.Y.Y.Y.Y.",
"Y.Y.Y.Y.Y.Y.Y.Y.Y.Y.Y.Y.Y.Y.Y.Y.Y.Y.Y.Y.Y.Y.Y.Y.Y.Y.Y.Y.Y.",
"Y.Y.Y.Y.Y.Y.Y.Y.Y.Y.Y.Y.Y.Y.Y.Y.Y.Y.Y.Y.Y.Y.Y.Y.Y.Y.Y.Y.Y.",
"Y.Y.Y.Y.Y.Y.Y.Y.Y.Y.Y.Y.Y.Y.Y.Y.Y.Y.Y.Y.Y.Y.Y.Y.Y.Y.Y.Y.Y.",
"Y.Y.Y.Y.Y.Y.Y.Y.Y.Y.Y.Y.Y.Y.Y.Y.Y.Y.Y.Y.Y.Y.Y.Y.Y.Y.Y.Y.Y.",
"Y.Y.Y.Y.Y.Y.Y.Y.Y.Y.Y.Y.Y.Y.Y.Y.Y.Y.Y.Y.Y.Y.Y.Y.Y.Y.Y.Y.Y.",
"Y.Y.Y.Y.Y.Y.Y.Y.Y.Y.Y.Y.Y.Y.Y.Y.Y.Y.Y.Y.Y.Y.Y.Y.Y.Y.Y.Y.Y.",
"Y.Y.Y.Y.Y.Y.Y.Y.Y.Y.Y.Y.Y.Y.Y.Y.Y.Y.Y.Y.Y.Y.Y.Y.Y.Y.Y.Y.Y.",
"Y.Y.Y.Y.Y.Y.Y.Y.Y.Y.Y.Y.Y.Y.Y.Y.Y.Y.Y.Y.Y.Y.Y.Y.Y.Y.Y.Y.Y.",
"Y.Y.Y.Y.Y.Y.Y.Y.Y.V d y y y V Y.Y.Y.d . Y.Y.Y.Y.Y.Y.Y.Y.Y.",
"Y.Y.Y.* 5 # Y.f a & $     O & > d * + Y.Y.Y.Y.Y.Y.Y.Y.Y.Y.",
"Y.Y.Y.Y., j $ y                   6 o Y.Y.Y.Y.Y.Y.Y.Y.Y.Y.",
"Y.Y.Y.Y.Y.k                           o Y.Y.Y.Y.Y.Y.Y.Y.Y.",
"Y.Y.Y.6 ; >                             Y.Y.Y.Y.Y.Y.Y.Y.Y.",
"Y.: +., @                             o Y.Y.Y.Y.Y.Y.Y.Y.Y.",
"Y.+.t         O u $                     Y.Y.Y.Y.Y.Y.Y.Y.Y.",
"Y.> o # V $ O k 6 $   $                 Y.Y.Y.Y.Y.Y.Y.Y.Y.",
"Y.$ Y.5 ;   t x ; |   c     r $         Y.Y.Y.Y.Y.Y.Y.Y.Y.",
"Y.Y.Y.Y.$ , : O K  .a  .f O 6 | $   + 9 Y.Y.Y.Y.Y.Y.Y.Y.Y.",
"Y.Y.Y.Y.h 7.k i P 9 j.W @.B g.B ! j j 7.l Y.Y.Y.Y.Y.Y.Y.Y.",
"Y.Y.Y.Y.p 8.X.>.I.n.j.M.*.W f.H.I.6...8.L Y.Y.Y.Y.Y.Y.Y.Y.",
"Y.Y.Y.Y., +.K &.P.J.Z.%.G.&.Z.J.P.&.#.@.p Y.Y.Y.Y.Y.Y.Y.Y.",
"Y.Y.Y.Y.Y.=  .N $.;.,.D.G.0.;.;...N s = Y.Y.Y.Y.Y.Y.Y.Y.Y.",
"Y.Y.Y.Y.Y.Y.Y.O g :.q.q.q.q.q.<.g w.v Y.Y.Y.Y.Y.Y.Y.Y.Y.Y.",
"Y.Y.Y.Y.Y.Y.Y.v z.t.` ) } ( ~ ' e 9.A.i Y.Y.Y.Y.Y.Y.Y.Y.Y.",
"Y.Y.Y.Y.Y.Y.Y.u.v.t.' ^ ..:.} ' e @.S.4.Y.Y.Y.Y.Y.Y.Y.Y.Y.",
"Y.Y.Y.Y.Y.Y.v x.x.y.] Z M h.d.A w u [ z Y.Y.Y.Y.Y.Y.Y.Y.Y.",
"Y.Y.Y.Y.Y.1 i.b.m.M.F.,.n M p.a.3 Y.Y.Y.Y.Y.Y.Y.Y.Y.Y.Y.Y.",
"Y.Y.Y.Y.Y.% c.m.k.F.G.6.n r.a.n 3 Y.Y.Y.Y.Y.Y.Y.Y.Y.Y.Y.Y.",
"Y.Y.Y.Y.Y.% e.e.S >.7.$.n { K r.2 Y.Y.Y.Y.Y.Y.Y.Y.Y.Y.Y.Y.",
"Y.Y.Y.Y.Y.Y.Y.. 7 D Z i.s.3.I m 1 Y.Y.Y.Y.Y.Y.Y.Y.Y.Y.Y.Y.",
"Y.Y.Y.Y.Y.Y.Y.Y.8 T G l.N.<.R F Y.Y.Y.Y.Y.Y.Y.Y.Y.Y.Y.Y.Y.",
"Y.Y.Y.Y.Y.Y.Y.Y.Y.0 q E 1.1.:.Y Y.Y.Y.Y.Y.Y.Y.Y.Y.Y.Y.Y.Y.",
"Y.Y.Y.Y.Y.Y.Y.Y.Y.Y.X o.L.U.K.-.; Y.Y.Y.Y.Y.Y.Y.Y.Y.Y.Y.Y.",
"Y.Y.Y.Y.Y.Y.Y.Y.Y.Y.Y.V.C.C.C.V.b Y.Y.Y.Y.Y.Y.Y.Y.Y.Y.Y.Y.",
"Y.Y.Y.Y.Y.Y.Y.Y.Y.Y.Y.U R R R Q H Y.Y.Y.Y.Y.Y.Y.Y.Y.Y.Y.Y.",
"Y.Y.Y.Y.Y.Y.Y.Y.Y.Y.Y.J R R R R q Y.Y.Y.Y.Y.Y.Y.Y.Y.Y.Y.Y.",
"Y.Y.Y.Y.Y.Y.Y.Y.Y.Y.Y.J R R R R q Y.Y.Y.Y.Y.Y.Y.Y.Y.Y.Y.Y.",
"Y.Y.Y.Y.Y.Y.Y.Y.Y.Y.Y.0 R R R Y 4 Y.Y.Y.Y.Y.Y.Y.Y.Y.Y.Y.Y.",
"Y.Y.Y.Y.Y.Y.Y.Y.Y.Y.Y.Y.. X X X Y.Y.Y.Y.Y.Y.Y.Y.Y.Y.Y.Y.Y.",
"Y.Y.Y.Y.Y.Y.Y.Y.Y.Y.Y.Y.Y.Y.Y.Y.Y.Y.Y.Y.Y.Y.Y.Y.Y.Y.Y.Y.Y.",
"Y.Y.Y.Y.Y.Y.Y.Y.Y.Y.Y.Y.Y.Y.Y.Y.Y.Y.Y.Y.Y.Y.Y.Y.Y.Y.Y.Y.Y.",
"Y.Y.Y.Y.Y.Y.Y.Y.Y.Y.Y.Y.Y.Y.Y.Y.Y.Y.Y.Y.Y.Y.Y.Y.Y.Y.Y.Y.Y.",
"Y.Y.Y.Y.Y.Y.Y.Y.Y.Y.Y.Y.Y.Y.Y.Y.Y.Y.Y.Y.Y.Y.Y.Y.Y.Y.Y.Y.Y.",
"Y.Y.Y.Y.Y.Y.Y.Y.Y.Y.Y.Y.Y.Y.Y.Y.Y.Y.Y.Y.Y.Y.Y.Y.Y.Y.Y.Y.Y.",
"Y.Y.Y.Y.Y.Y.Y.Y.Y.Y.Y.Y.Y.Y.Y.Y.Y.Y.Y.Y.Y.Y.Y.Y.Y.Y.Y.Y.Y.",
"Y.Y.Y.Y.Y.Y.Y.Y.Y.Y.Y.Y.Y.Y.Y.Y.Y.Y.Y.Y.Y.Y.Y.Y.Y.Y.Y.Y.Y.",
"Y.Y.Y.Y.Y.Y.Y.Y.Y.Y.Y.Y.Y.Y.Y.Y.Y.Y.Y.Y.Y.Y.Y.Y.Y.Y.Y.Y.Y.",
"Y.Y.Y.Y.Y.Y.Y.Y.Y.Y.Y.Y.Y.Y.Y.Y.Y.Y.Y.Y.Y.Y.Y.Y.Y.Y.Y.Y.Y."
};
