/* XPM */
static char *result[] = {
/* columns rows colors chars-per-pixel */
"29 50 192 2 ",
"   c #030101",
".  c #0B0000",
"X  c #0A080A",
"o  c #120506",
"O  c #1C0A0C",
"+  c #170807",
"@  c #1F120E",
"#  c #1F0911",
"$  c #23110E",
"%  c #230E14",
"&  c #260E18",
"*  c #360013",
"=  c #3A0719",
"-  c #261115",
";  c #2C1515",
":  c #2C1618",
">  c #351F1A",
",  c #122307",
"<  c #3C231C",
"1  c #3D2217",
"2  c #110029",
"3  c #150039",
"4  c #140032",
"5  c #1E1625",
"6  c #361824",
"7  c #2E1531",
"8  c #27202D",
"9  c #2D2936",
"0  c #342324",
"q  c #45291C",
"w  c #46251E",
"e  c #582D1F",
"r  c #441D2C",
"t  c #451520",
"y  c #4F1A31",
"u  c #6D0027",
"i  c #710C30",
"p  c #6A1036",
"a  c #472825",
"s  c #543325",
"d  c #59293C",
"f  c #533134",
"g  c #513530",
"h  c #6D3F35",
"j  c #5E4639",
"k  c #6A422F",
"l  c #7A452B",
"z  c #734630",
"x  c #79463F",
"c  c #050152",
"v  c #1F0055",
"b  c #021752",
"n  c #20004C",
"m  c #210055",
"M  c #331942",
"N  c #1A037B",
"B  c #270068",
"V  c #21156E",
"C  c #2E007E",
"Z  c #2A0675",
"A  c #340B7D",
"S  c #401A4E",
"D  c #5B2842",
"F  c #5E3140",
"G  c #463E53",
"H  c #652D44",
"J  c #672647",
"K  c #673846",
"L  c #703F41",
"P  c #722848",
"I  c #691974",
"U  c #4F3976",
"Y  c #5B4D4F",
"T  c #5E5555",
"R  c #784545",
"E  c #6A5249",
"W  c #7E5D4B",
"Q  c #734754",
"!  c #5A5267",
"~  c #5D5575",
"^  c #574F6C",
"/  c #794A68",
"(  c #674D67",
")  c #777277",
"_  c #6F6269",
"`  c #93031F",
"'  c #AD0814",
"]  c #B40114",
"[  c #940527",
"{  c #9A003C",
"}  c #870D2A",
"|  c #AE002E",
" . c #992A3C",
".. c #C10000",
"X. c #C8010E",
"o. c #CC011B",
"O. c #E20106",
"+. c #F70001",
"@. c #F73333",
"#. c #8B563C",
"$. c #915A3F",
"%. c #8F483A",
"&. c #9D005A",
"*. c #8B2A40",
"=. c #8A554A",
"-. c #854A55",
";. c #8D515B",
":. c #99544B",
">. c #BB7458",
",. c #A86854",
"<. c #835567",
"1. c #955C63",
"2. c #9A6166",
"3. c #836A73",
"4. c #956673",
"5. c #827C7C",
"6. c #AB7573",
"7. c #C97D5F",
"8. c #E76A6D",
"9. c #C59D30",
"0. c #B88676",
"q. c #B28267",
"w. c #D4865D",
"e. c #C18472",
"r. c #CE9371",
"t. c #D28B6B",
"y. c #E19C75",
"u. c #04009D",
"i. c #041E98",
"p. c #3B1588",
"a. c #0009BF",
"s. c #1700BF",
"d. c #200BB2",
"f. c #0336B4",
"g. c #342DB1",
"h. c #52308C",
"j. c #433D99",
"k. c #2150A9",
"l. c #654786",
"z. c #67618E",
"x. c #766E82",
"c. c #7B7385",
"v. c #6B5DAA",
"b. c #5874BD",
"n. c #6065A5",
"m. c #000BC0",
"M. c #1100CA",
"N. c #0C00D8",
"B. c #0F11D0",
"V. c #160DDA",
"C. c #0800E1",
"Z. c #0605EF",
"A. c #100FE9",
"S. c #0000F7",
"D. c #003DF7",
"F. c #2F2FF7",
"G. c #3A50CD",
"H. c #3A6BC9",
"J. c #0042F7",
"K. c #0151F7",
"L. c #005DF7",
"P. c #4362DF",
"I. c #4D79C9",
"U. c #996482",
"Y. c #A57585",
"T. c #8A828B",
"R. c #9F9797",
"E. c #98919C",
"W. c #978388",
"Q. c #A39797",
"!. c #8991A5",
"~. c #BDB5B4",
"^. c #C68F82",
"/. c #C59388",
"(. c #EF9092",
"). c #F79090",
"_. c #DFAA92",
"`. c #D5A18A",
"'. c #EEB28D",
"]. c #E8B598",
"[. c #E8AB87",
"{. c #C0BBBB",
"}. c #C6A7AA",
"|. c #E2BEB0",
" X c #F7C29F",
".X c #B6ACC2",
"XX c #87B1F7",
"oX c #DAD8D8",
"OX c #E9D7CD",
"+X c #E9E7E9",
"@X c #F4F3F3",
"#X c None",
/* pixels */
"#X#X#X#X#X#X#X#X#X#X#X#X#X#X#X#X#X#X#X#X#X#X#X#X#X#X#X#X#X",
"#X#X#X#X#X#X#X#X#X#X#X#X#X#X#X#X#X#X#X#X#X#X#X#X#X#X#X#X#X",
"#X#X#X#X#X#X#X#X#X#X#X#X#X#X#X#X#X#X#X#X#X#X#X#X#X#X#X#X#X",
"#X#X#X#X#X#X#X#X#X#X#X#X#X#X#X#X#X#X#X#X#X#X#X#X#X#X#X#X#X",
"#X#X#X#X#X#X#X#X#X#X#X#X#X#X#X#X#X#X#X#X#X#X#X#X#X#X#X#X#X",
"#X#X#X#X#X#X#X#X#X#X#X#X#X#X#X#X#X#X#X#X#X#X#X#X#X#X#X#X#X",
"#X#X#X#X#X#X#X#X#X#X#X#X#X#X#X#X#X#X#X#X#X#X#X#X#X#X#X#X#X",
"#X#X#X#X#X#X#X#X#X#X#X#X#X#X#X#X#X#X#X#X#X#X#X#X#X#X#X#X#X",
"#X#X#X#X#X#X#X#X#X#X#X#X#X#X#X#X#X#X#X#X#X#X#X#X#X#X#X#X#X",
"#X#X#X#X#X#X#X#X#X#XH K r r r H H #X#XF & #X#X#X#X#X#X#X#X",
"#X#X#X#X& y O #X#Xd & % . . . % % d r # . #X#X#X#X#X#X#X#X",
"#X#X#X#X#X#Xz $ r O . . . . . . . . : o #X#X#X#X#X#X#X#X#X",
"#X#X#X#X#X#Xf : . . . . . . . . . . . .   #X#X#X#X#X#X#X#X",
"#X#X#X#X: 6 # O . . . . . . . . . . . . . #X#X#X#X#X#X#X#X",
"#X#X#Xl e # . . . . . . . . . . . . . . .   #X#X#X#X#X#X#X",
"#X#X%.l . . . . . 6 - . . . . . . . . . .   #X#X#X#X#X#X#X",
"#X#Xt + , g > . 6 h O . + . . . . . . . .   #X#X#X#X#X#X#X",
"#X#X# #X#Xr . + =.- L - f - . O 1 . . . . #X#X#X#X#X#X#X#X",
"#X#X#X#X#X0 @ 1 O y ,.h h R + # =.; . o > #X#X#X#X#X#X#X#X",
"#X#X#X#X#X#X6.,.< E T 3.<.>.R Y _ 3.E > r.=.#X#X#X#X#X#X#X",
"#X#X#X#X#X> w.>.:.OX!.!.v.2.1.I.5.OX].Q >.0.; q 1 1 #X#X#X",
"#X#X#X#X#X$ #.;.-.|.XXk.6._.6.z.H.+X/.;.w.K n $.w.7.a #X#X",
"#X#X#X< q Z N R R Q 4.4.^.].[.6.4.1.K d 7 Z C 7.w.w.s #X#X",
"#X#Xa r.y.G.D.f.u.M 2.r.y.y.y.y.0.-.7 m Z C C 7.w.w.s #X#X",
"#X#Xj  X XP.J.L.L.V +.' } *.*.[ X.o.C C p.m v S $.l #X#X#X",
"#X#Xg ].'.U.c b i.V.X.+.] [ } O.+.[ C 4 2 #X#X#X#X#X#X#X#X",
"#X#X#Xk #.w #X#X4 s.&.{ <.Q..XI | &.B #X#X#X#X#X#X#X#X#X#X",
"#X#X#X#X#X#X#X#X#Xa.J.B.p.h.g.C.Z Z 3 #X#X#X#X#X#X#X#X#X#X",
"#X#X#X#X#X#X#X#X#Xa.L.K.F.l.S.C.C C 3 #X#X#X#X#X#X#X#X#X#X",
"#X#X#X#X#X#X#X#X#Xa.L.L.v.9.M.C.C C 3 #X#X#X#X#X#X#X#X#X#X",
"#X#X#X#X#X#X#X#X#Xg.L.K.S.M.N.N.C C 3 #X#X#X#X#X#X#X#X#X#X",
"#X#X#X#X#X#X#X#X#X) I.K.Z.d.A.V.A U 7 #X#X#X#X#X#X#X#X#X#X",
"#X#X#X#X#X#X#X#X#X_ E.b.j.^ ! ) ~ J * #X#X#X#X#X#X#X#X#X#X",
"#X#X#X#X#X#X#X#X#XG 0.Q.! 5 6 P P p = #X#X#X#X#X#X#X#X#X#X",
"#X#X#X#X#X#X#X#X#X= / _.=.D Q Q.c.~ 9 #X#X#X#X#X#X#X#X#X#X",
"#X#X#X#X#X#X#X#X#X' }.+X~.( H T.x.G #X#X#X#X#X#X#X#X#X#X#X",
"#X#X#X#X#X#X#X#X#X..@.8.-.i * 8 9 #X#X#X#X#X#X#X#X#X#X#X#X",
"#X#X#X#X#X#X#X#X#X..+.O.u u * #X#X#X#X#X#X#X#X#X#X#X#X#X#X",
"#X#X#X#X#X#X#X#X#X:.).).Y.<.7 #X#X#X#X#X#X#X#X#X#X#X#X#X#X",
"#X#X#X#X#X#X#X#X#X) +X@X{.T.9 #X#X#X#X#X#X#X#X#X#X#X#X#X#X",
"#X#X#X#X#X#X#X#X#X9 E.~.T.^ 5 #X#X#X#X#X#X#X#X#X#X#X#X#X#X",
"#X#X#X#X#X#X#X#X#X#X. X X X #X#X#X#X#X#X#X#X#X#X#X#X#X#X#X",
"#X#X#X#X#X#X#X#X#X#X#X#X#X#X#X#X#X#X#X#X#X#X#X#X#X#X#X#X#X",
"#X#X#X#X#X#X#X#X#X#X#X#X#X#X#X#X#X#X#X#X#X#X#X#X#X#X#X#X#X",
"#X#X#X#X#X#X#X#X#X#X#X#X#X#X#X#X#X#X#X#X#X#X#X#X#X#X#X#X#X",
"#X#X#X#X#X#X#X#X#X#X#X#X#X#X#X#X#X#X#X#X#X#X#X#X#X#X#X#X#X",
"#X#X#X#X#X#X#X#X#X#X#X#X#X#X#X#X#X#X#X#X#X#X#X#X#X#X#X#X#X",
"#X#X#X#X#X#X#X#X#X#X#X#X#X#X#X#X#X#X#X#X#X#X#X#X#X#X#X#X#X",
"#X#X#X#X#X#X#X#X#X#X#X#X#X#X#X#X#X#X#X#X#X#X#X#X#X#X#X#X#X",
"#X#X#X#X#X#X#X#X#X#X#X#X#X#X#X#X#X#X#X#X#X#X#X#X#X#X#X#X#X"
};
