/* XPM */
static char *_005c84bdbdc4451a729c531eadaf281bqaA8ZKbfm3reTmt[] = {
/* columns rows colors chars-per-pixel */
"29 50 139 2 ",
"   c None",
".  c #181515",
"X  c #141419",
"o  c #16181E",
"O  c #1D1B1C",
"+  c #211F1F",
"@  c #1D1F26",
"#  c #212124",
"$  c #212329",
"%  c #22282F",
"&  c #232731",
"*  c #262B35",
"=  c #292D35",
"-  c #272E3D",
";  c #2A2F39",
":  c #2C3037",
">  c #27303E",
",  c #2B323C",
"<  c #353332",
"1  c #34363A",
"2  c #423E3B",
"3  c #48443F",
"4  c #2D3543",
"5  c #2F3845",
"6  c #2F3949",
"7  c #333A46",
"8  c #3A3E46",
"9  c #313B4B",
"0  c #3B3F48",
"q  c #373F50",
"w  c #3C4047",
"e  c #37404D",
"r  c #3B424E",
"t  c #374152",
"y  c #3C4453",
"u  c #3F4958",
"i  c #434345",
"p  c #42444B",
"a  c #4B4B4C",
"s  c #504944",
"d  c #53504B",
"f  c #454B54",
"g  c #4C4E53",
"h  c #434B5B",
"j  c #494F5A",
"k  c #504F50",
"l  c #4C5457",
"z  c #4E535C",
"x  c #4F5A58",
"c  c #505051",
"v  c #595756",
"b  c #5D5A56",
"n  c #54565C",
"m  c #575A5E",
"M  c #5B5C5C",
"N  c #645F5B",
"B  c #64615F",
"V  c #4E5665",
"C  c #4F5867",
"Z  c #515766",
"A  c #545A62",
"S  c #5C5F62",
"D  c #535B6A",
"F  c #5C6262",
"G  c #636464",
"H  c #696561",
"J  c #656F65",
"K  c #6C6A66",
"L  c #62646A",
"P  c #6A6668",
"I  c #67696B",
"U  c #6C6B6B",
"Y  c #716E6D",
"T  c #687465",
"R  c #73716F",
"E  c #7B716F",
"W  c #737B6E",
"Q  c #747472",
"!  c #797675",
"~  c #7B7977",
"^  c #7C7B79",
"/  c #83776F",
"(  c #817E7D",
")  c #7B8676",
"_  c #82807E",
"`  c #91857F",
"'  c #868482",
"]  c #898584",
"[  c #8D8885",
"{  c #8D8B8A",
"}  c #928A84",
"|  c #998B80",
" . c #928D8C",
".. c #97918B",
"X. c #9C948C",
"o. c #959190",
"O. c #9A9594",
"+. c #9F9B9A",
"@. c #A49489",
"#. c #A59D94",
"$. c #A29D9C",
"%. c #A6A19E",
"&. c #ABA39E",
"*. c #B4A395",
"=. c #B9A698",
"-. c #BDAB9C",
";. c #A6A4A2",
":. c #ABA7A6",
">. c #AEAAAA",
",. c #B1AAA4",
"<. c #BCAEA1",
"1. c #B0ABAB",
"2. c #B0ACAB",
"3. c #B1ADAD",
"4. c #B1AEAD",
"5. c #B2AFAE",
"6. c #B1ADAC",
"7. c #BAB0A7",
"8. c #B4B0AF",
"9. c #B4B1B0",
"0. c #B6B1B1",
"q. c #B5B3B2",
"w. c #B8B3B2",
"e. c #BBB7B7",
"r. c #BDB8B7",
"t. c #C1B2A1",
"y. c #C1B2A4",
"u. c #C7B7A6",
"i. c #C8B9A7",
"p. c #C9B7A8",
"a. c #C9B8A8",
"s. c #C2BCB8",
"d. c #D0C1AF",
"f. c #D1C1B0",
"g. c #D2C1B1",
"h. c #D3C2B2",
"j. c #D5C3B2",
"k. c #D5C3B3",
"l. c #D5C4B3",
/* pixels */
"                                                          ",
"                                                          ",
"                                                          ",
"                                                          ",
"                                                          ",
"                                                          ",
"                      8 f V Z V j p 8 :                   ",
"                f V V V Z D V V V V Z V z                 ",
"              j D D D D D D D V h h t 9 t                 ",
"              D V V C u t V D 9 9 9 9 9 9 =               ",
"              D h h 9 9 9 u t 9 9 9 9 9 9 7               ",
"              D h h 9 9 9 h 9 9 9 9 9 9 9 e               ",
"            , D 9 e y 9 h 9 9 9 9 9 9 9 7 8               ",
"            i f 7 7 e 9 u 6 6 9 7 0 p a k c <             ",
"            v c c c a a a a c c c c c c c c a             ",
"            v c c c c c c c c c c c c c c a w e h y       ",
"        7 e 8 p a g c c c c c c a p p 0 7 9 9 9 9 h p     ",
"    1 t 9 9 9 9 9 6 7 9 7 7 7 5 9 9 9 9 9 9 9 , $         ",
"        % 9 9 9 9 9 9 9 9 9 9 9 9 9 9 r g m Q             ",
"          o.{ ^ U L l n c F G v P Y _ ' ;.>.5.            ",
"          H q.5.` E ` | X.&.$.q.]  .$.{ q.5.e.            ",
"            +.O./ =.-.*.a.i.y.X.%.@./ ..>.e.q.G           ",
"              ( K h.l.u.-.j.j.u.t.<.j.o.^ r.>.~           ",
"              ( Y X.h.p.7.s.,.} ..#.X.Y ^ w.5.[           ",
"                ] ' Y X.d.-.h.} 9 e I ^ ! 1.2.$.          ",
"                ( ! Q e J ) W F 9 4 S ^ ^ +.5.:.          ",
"              b ^ ^ F 9 x T F 9 9 6 e Q ^  .>.q.          ",
"              _ ~ ^ y 9 r ) e 6 9 6 9 A ^ ] 5.8.          ",
"              ' Q I 9 9 5 7 9 9 9 6 6 t ! ^ >.5.          ",
"              Q ^ z 9 6 9 9 9 9 9 f e 9 m Q :.;.B         ",
"            K R ~ 7 , 4 9 9 9 9 9 m n 4 r Q $.O.!         ",
"            ~ U ! y 9 : * * = * * n y 9 z R o.O.[         ",
"            Q K Q n w 9 9 9 $ ; 9 9 5 9 Q R  . .[         ",
"            b b R F e 9 9 9 $ = 9 9 7 f ^ R ..! a         ",
"              3 R K 7 9 9 9 # = 9 9 r U ^ U O.R           ",
"                Q R e 6 9 9 # = 9 9 n R ^ ! ( N           ",
"                d I 9 9 9 9 @ = 9 9 z R U Q 2             ",
"                  c 9 q 6 9 , 5 9 9 f M s 2               ",
"                    9 t 9 9 9 9 9 9 y                     ",
"                    9 t 9 9 9 9 9 9 u                     ",
"                      > 4 4 4 4 4 *                       ",
"                      ; > X   @ - &                       ",
"                    . $ & o   * & &                       ",
"                  O + + O     O # O                       ",
"                                                          ",
"                                                          ",
"                                                          ",
"                                                          ",
"                                                          ",
"                                                          "
};
