/* XPM */
static char *result[] = {
/* columns rows colors chars-per-pixel */
"29 50 170 2 ",
"   c #030000",
".  c #0B0000",
"X  c #0E0308",
"o  c #080800",
"O  c #130406",
"+  c #160609",
"@  c #140809",
"#  c #19090C",
"$  c #0E0017",
"%  c #110017",
"&  c #1B0817",
"*  c #1B1213",
"=  c #1B1619",
"-  c #26010C",
";  c #370404",
":  c #23120D",
">  c #220B11",
",  c #2A0E11",
"<  c #2A1C13",
"1  c #2C141B",
"2  c #23191A",
"3  c #32161E",
"4  c #371C16",
"5  c #1D2410",
"6  c #3C2219",
"7  c #150025",
"8  c #13002C",
"9  c #18062B",
"0  c #140032",
"q  c #1D003E",
"w  c #170037",
"e  c #251D26",
"r  c #331720",
"t  c #351923",
"y  c #381924",
"u  c #3A1B2A",
"i  c #2C2223",
"p  c #2C242F",
"a  c #2D2938",
"s  c #312A36",
"d  c #39313C",
"f  c #353032",
"g  c #730810",
"h  c #42241C",
"j  c #482A1D",
"k  c #441E2C",
"l  c #421425",
"z  c #491E30",
"x  c #6D0027",
"c  c #6C012B",
"v  c #670328",
"b  c #660E32",
"n  c #4D2E23",
"m  c #43282C",
"M  c #5C382F",
"N  c #4D2332",
"B  c #5D263D",
"V  c #5C2C3F",
"C  c #57263B",
"Z  c #483937",
"A  c #563B36",
"S  c #61392B",
"D  c #683739",
"F  c #704531",
"G  c #64493A",
"H  c #180046",
"J  c #1B005D",
"K  c #220053",
"L  c #21005A",
"P  c #2A006E",
"I  c #250069",
"U  c #2E007D",
"Y  c #33057E",
"T  c #570051",
"R  c #423042",
"E  c #433B52",
"W  c #503A56",
"Q  c #632C43",
"!  c #742343",
"~  c #613D43",
"^  c #653152",
"/  c #6A3757",
"(  c #713A57",
")  c #4D4041",
"_  c #49425B",
"`  c #4A4453",
"'  c #56445F",
"]  c #784446",
"[  c #7D5551",
"{  c #5F5264",
"}  c #5A5270",
"|  c #735C68",
" . c #6D657D",
".. c #766B7B",
"X. c #787172",
"o. c #98001B",
"O. c #A10000",
"+. c #A80016",
"@. c #8A1529",
"#. c #AF192A",
"$. c #BF1B2B",
"%. c #9A343A",
"&. c #D7040D",
"*. c #F70000",
"=. c #EE1B1E",
"-. c #F71B1B",
";. c #D63838",
":. c #824D3E",
">. c #8D573C",
",. c #90593E",
"<. c #895455",
"1. c #95585C",
"2. c #A95450",
"3. c #B16D4B",
"4. c #946468",
"5. c #836B7B",
"6. c #837B7D",
"7. c #947E7E",
"8. c #B07874",
"9. c #D14043",
"0. c #CC7858",
"q. c #BD9379",
"w. c #D2855C",
"e. c #C78766",
"r. c #D38964",
"t. c #DB946D",
"y. c #DF9A74",
"u. c #E4A47E",
"i. c #0F049D",
"p. c #2A008A",
"a. c #22009D",
"s. c #0D03AC",
"d. c #1700BB",
"f. c #1700B3",
"g. c #3D38B1",
"h. c #6C3885",
"j. c #5B39B5",
"k. c #274B8F",
"l. c #6D5D85",
"z. c #5578B7",
"x. c #0D00D7",
"c. c #0900E0",
"v. c #0300EF",
"b. c #0700E6",
"n. c #0202F5",
"m. c #877F8A",
"M. c #8D858E",
"N. c #8D8696",
"B. c #978C90",
"V. c #9D9596",
"C. c #9D989A",
"Z. c #A98A93",
"A. c #9892A0",
"S. c #ADA8AA",
"D. c #ADA9B7",
"F. c #B4B0B4",
"G. c #D49F80",
"H. c #D6A586",
"J. c #EBAD88",
"K. c #EEB28E",
"L. c #F3BC98",
"P. c #C7B1A6",
"I. c #EBBEA6",
"U. c #F7C29F",
"Y. c #F7C3A1",
"T. c #F6D4BD",
"R. c #D1C2C2",
"E. c #D7D4D4",
"W. c #F4F4F4",
"Q. c None",
/* pixels */
"Q.Q.Q.Q.Q.Q.Q.Q.Q.Q.Q.Q.Q.Q.Q.Q.Q.Q.Q.Q.Q.Q.Q.Q.Q.Q.Q.Q.Q.",
"Q.Q.Q.Q.Q.Q.Q.Q.Q.Q.Q.Q.Q.Q.Q.Q.Q.Q.Q.Q.Q.Q.Q.Q.Q.Q.Q.Q.Q.",
"Q.Q.Q.Q.Q.Q.Q.Q.Q.Q.Q.Q.Q.Q.Q.Q.Q.Q.Q.Q.Q.Q.Q.Q.Q.Q.Q.Q.Q.",
"Q.Q.Q.Q.Q.Q.Q.Q.Q.Q.Q.Q.Q.Q.Q.Q.Q.Q.Q.Q.Q.Q.Q.Q.Q.Q.Q.Q.Q.",
"Q.Q.Q.Q.Q.Q.Q.Q.Q.Q.Q.Q.Q.Q.Q.Q.Q.Q.Q.Q.Q.Q.Q.Q.Q.Q.Q.Q.Q.",
"Q.Q.Q.Q.Q.Q.Q.Q.Q.Q.Q.Q.Q.Q.Q.Q.Q.Q.Q.Q.Q.Q.Q.Q.Q.Q.Q.Q.Q.",
"Q.Q.Q.Q.Q.Q.Q.Q.Q.Q.Q.Q.Q.Q.Q.Q.Q.Q.Q.Q.Q.Q.Q.Q.Q.Q.Q.Q.Q.",
"Q.Q.Q.Q.Q.Q.Q.Q.Q.Q.Q.Q.Q.Q.Q.Q.Q.Q.Q.Q.Q.Q.Q.Q.Q.Q.Q.Q.Q.",
"Q.Q.Q.Q.Q.Q.Q.Q.Q.Q.Q.Q.Q.Q.Q.Q.Q.Q.Q.Q.Q.Q.Q.Q.Q.Q.Q.Q.Q.",
"Q.Q.Q.Q.Q.Q.Q.Q.Q.Q.Q.B B N z N Q Q.Q.Q.Q.Q.Q 1 Q.Q.Q.Q.Q.",
"Q.Q.Q.Q.Q.V 1 Q.Q.B z y # . . O y y Q y Q.Q t . X Q.Q.Q.Q.",
"Q.Q.Q.Q.Q.Q.F : y O O . . . . . . . + u t t .     Q.Q.Q.Q.",
"Q.Q.Q.Q.Q.Q.Q.D . . . . . . . . . . . . 1 . @ Q.Q.Q.Q.Q.Q.",
"Q.Q.Q.Q.Q.* > k . . . . . . . . . . . . . . . Q.Q.Q.Q.Q.Q.",
"Q.Q.Q.n S m + . . . . . . . . . . . . . . .   Q.Q.Q.Q.Q.Q.",
"Q.Q.Q.3.h . . . . . + . . . . . . . . . . .   Q.Q.Q.Q.Q.Q.",
"Q.Q.D 6 o 5 r . o N V X . . . . . . . . . .   Q.Q.Q.Q.Q.Q.",
"Q.Q.l . Q.A t 1 :.1 N O . . . . . . . . . .   Q.Q.Q.Q.Q.Q.",
"Q.Q.Q.Q.Q.> Q.6 < D ,.] # . . . . . . . . .   Q.Q.Q.Q.Q.Q.",
"Q.Q.Q.Q.Q.Q.Q.. . k.i h # # [ 2 . . . . . . Q.Q.Q.Q.Q.Q.Q.",
"Q.Q.Q.Q.Q.Q.Q.Q.X C.T.t.w.M t.H.. . . . .   Q.Q.Q.Q.Q.Q.Q.",
"Q.Q.Q.Q.Q.Q.Q.A ~ z.T.L.J.1.w.y.. . . . . Q.Q.Q.Q.Q.Q.Q.Q.",
"Q.Q.Q.Q.Q.Q.Q.F 8.I.Y.U.U.r.0.6 . . . . Q.Q.Q.Q.Q.Q.Q.Q.Q.",
"Q.Q.Q.Q.Q.Q.Q.j q.U.U.U.J.e.] O . .     Q.Q.Q.Q.Q.Q.Q.Q.Q.",
"Q.Q.Q.Q.Q.Q.Q.Q.6 <.0.0.2.^ 7 % % $ Q.Q.Q.Q.Q.Q.Q.Q.Q.Q.Q.",
"Q.Q.Q.Q.Q.Q.Q.Q.Q.# O.o.+.U d.p.U U 8 Q.Q.Q.Q.Q.Q.Q.Q.Q.Q.",
"Q.Q.Q.Q.Q.Q.Q.Q.Q.Q.; c T x.v.H U U w 0 Q.Q.Q.Q.Q.Q.Q.Q.Q.",
"Q.Q.Q.Q.Q.Q.Q.Q.Q.Q.X U a.v.d.7 U U q P 0 Q.Q.Q.Q.Q.Q.Q.Q.",
"Q.Q.Q.Q.Q.Q.Q.Q.Q.A q.<.i.b.J K U U K K L Q.Q.Q.Q.Q.Q.Q.Q.",
"Q.Q.Q.Q.Q.Q.Q.Q.< U.Y.K.j.f.q P U U U 8 w Q.Q.Q.Q.Q.Q.Q.Q.",
"Q.Q.Q.Q.Q.Q.Q.Q.< u.U.t.h.I q p.f.U U 8 Q.Q.Q.Q.Q.Q.Q.Q.Q.",
"Q.Q.Q.Q.Q.Q.Q.Q.Q.j ,.] K 7 p.x.n.d.Y 9 Q.Q.Q.Q.Q.Q.Q.Q.Q.",
"Q.Q.Q.Q.Q.Q.Q.    Q.+ R , K p.x.n.n.l._ Q.Q.Q.Q.Q.Q.Q.Q.Q.",
"Q.Q.Q.Q.Q.Q.p } ' - ; m.M P U s.g.N.B.{ Q.Q.Q.Q.Q.Q.Q.Q.Q.",
"Q.Q.Q.Q.Q.Q._  .! x x ( d 8 w 9 ` B.4.m Q.Q.Q.Q.Q.Q.Q.Q.Q.",
"Q.Q.Q.Q.Q.Q.' V...b x c v b a Q.Q.* n e.m i Q.Q.Q.Q.Q.Q.Q.",
"Q.Q.Q.Q.Q.Q.s M.V.5.( x x ^ a Q.Q.Q.e M P.N.g u 2 Q.Q.Q.Q.",
"Q.Q.Q.Q.Q.Q.Q.= ` M.X.| W E Q.Q.Q.Q.f S.R.9.&./ = Q.Q.Q.Q.",
"Q.Q.Q.Q.Q.Q.Q.Q.Q.* * = Q.Q.Q.Q.Q.Q.r %.;.*.#.M.i Q.Q.Q.Q.",
"Q.Q.Q.Q.Q.Q.Q.Q.Q.Q.Q.Q.Q.Q.Q.Q.Q.> @.=.-.$.Z.A.e Q.Q.Q.Q.",
"Q.Q.Q.Q.Q.Q.Q.Q.Q.Q.Q.Q.Q.Q.Q.Q.Q.) E.W.W.W.F.a Q.Q.Q.Q.Q.",
"Q.Q.Q.Q.Q.Q.Q.Q.Q.Q.Q.Q.Q.Q.Q.Q.Q.X.W.W.W.D.Z Q.Q.Q.Q.Q.Q.",
"Q.Q.Q.Q.Q.Q.Q.Q.Q.Q.Q.Q.Q.Q.Q.Q.Q.d M.M...p Q.Q.Q.Q.Q.Q.Q.",
"Q.Q.Q.Q.Q.Q.Q.Q.Q.Q.Q.Q.Q.Q.Q.Q.Q.Q.Q.Q.Q.Q.Q.Q.Q.Q.Q.Q.Q.",
"Q.Q.Q.Q.Q.Q.Q.Q.Q.Q.Q.Q.Q.Q.Q.Q.Q.Q.Q.Q.Q.Q.Q.Q.Q.Q.Q.Q.Q.",
"Q.Q.Q.Q.Q.Q.Q.Q.Q.Q.Q.Q.Q.Q.Q.Q.Q.Q.Q.Q.Q.Q.Q.Q.Q.Q.Q.Q.Q.",
"Q.Q.Q.Q.Q.Q.Q.Q.Q.Q.Q.Q.Q.Q.Q.Q.Q.Q.Q.Q.Q.Q.Q.Q.Q.Q.Q.Q.Q.",
"Q.Q.Q.Q.Q.Q.Q.Q.Q.Q.Q.Q.Q.Q.Q.Q.Q.Q.Q.Q.Q.Q.Q.Q.Q.Q.Q.Q.Q.",
"Q.Q.Q.Q.Q.Q.Q.Q.Q.Q.Q.Q.Q.Q.Q.Q.Q.Q.Q.Q.Q.Q.Q.Q.Q.Q.Q.Q.Q.",
"Q.Q.Q.Q.Q.Q.Q.Q.Q.Q.Q.Q.Q.Q.Q.Q.Q.Q.Q.Q.Q.Q.Q.Q.Q.Q.Q.Q.Q."
};
