/* XPM */
static char *result[] = {
/* columns rows colors chars-per-pixel */
"29 50 171 2 ",
"   c #040001",
".  c #0B0000",
"X  c #0B000C",
"o  c #120405",
"O  c #160609",
"+  c #17080C",
"@  c #1A0A0D",
"#  c #1B0B14",
"$  c #1A1516",
"%  c #210D12",
"&  c #270C19",
"*  c #380818",
"=  c #2D1614",
"-  c #2D141C",
";  c #241B1B",
":  c #231317",
">  c #3A1E1C",
",  c #351B16",
"<  c #063002",
"1  c #3E2219",
"2  c #060323",
"3  c #13002C",
"4  c #1F1722",
"5  c #070031",
"6  c #13013A",
"7  c #0F1B3D",
"8  c #241E26",
"9  c #3B1A25",
"0  c #36282A",
"q  c #2E2A38",
"w  c #332D3A",
"e  c #382E3E",
"r  c #6F001C",
"t  c #42251C",
"y  c #492A1E",
"u  c #441C29",
"i  c #4A1E2F",
"p  c #571D36",
"a  c #6E052B",
"s  c #6A1339",
"d  c #741536",
"f  c #44212E",
"g  c #4A2823",
"h  c #41302B",
"j  c #52302C",
"k  c #4E2535",
"l  c #452330",
"z  c #5C253C",
"x  c #5B293E",
"c  c #592537",
"v  c #563738",
"b  c #623B2B",
"n  c #6E2D3D",
"m  c #633834",
"M  c #655100",
"N  c #734434",
"B  c #0C0042",
"V  c #1A0048",
"C  c #1A144C",
"Z  c #14055B",
"A  c #3D3544",
"S  c #3D384C",
"D  c #3C315D",
"F  c #2E007E",
"G  c #072563",
"H  c #032F7E",
"J  c #2F3E6B",
"K  c #522442",
"L  c #433D4C",
"P  c #793747",
"I  c #653448",
"U  c #510D70",
"Y  c #4A0A6B",
"T  c #412A6F",
"R  c #493179",
"E  c #7C3F6F",
"W  c #584F4F",
"Q  c #59445E",
"!  c #49434F",
"~  c #794445",
"^  c #675E5F",
"/  c #5D5575",
"(  c #8F001D",
")  c #AE0519",
"_  c #88003D",
"`  c #B51727",
"'  c #B83339",
"]  c #CA000D",
"[  c #DA0008",
"{  c #C50016",
"}  c #E90206",
"|  c #F60202",
" . c #F10B0B",
".. c #874E4B",
"X. c #8E4850",
"o. c #905359",
"O. c #9D6A5D",
"+. c #846554",
"@. c #B16A4B",
"#. c #A7605A",
"$. c #BD7753",
"%. c #9B5A71",
"&. c #AD566A",
"*. c #8D6472",
"=. c #946F70",
"-. c #80777B",
";. c #BB6A6A",
":. c #AF7A78",
">. c #AF7668",
",. c #F74747",
"<. c #CA7E5D",
"1. c #B5907E",
"2. c #AD8674",
"3. c #D4865D",
"4. c #D78D68",
"5. c #D78A64",
"6. c #DD956E",
"7. c #DE9770",
"8. c #120397",
"9. c #2B0088",
"0. c #270092",
"q. c #1700BB",
"w. c #482BB4",
"e. c #7C7081",
"r. c #5042A7",
"t. c #647CAB",
"y. c #1102CB",
"u. c #0E02D3",
"i. c #0702DF",
"p. c #140ADF",
"a. c #0A14DC",
"s. c #1210E5",
"d. c #0001F7",
"f. c #000EF7",
"g. c #0017F7",
"h. c #0420ED",
"j. c #002DF7",
"k. c #0034F7",
"l. c #003EF7",
"z. c #462CC4",
"x. c #2F54D9",
"c. c #1340E1",
"v. c #0049F7",
"b. c #0043F7",
"n. c #005BF7",
"m. c #9071C4",
"M. c #898186",
"N. c #908A8A",
"B. c #958D95",
"V. c #9F9797",
"C. c #A0838D",
"Z. c #B3AEB1",
"A. c #B9B5B8",
"S. c #D18888",
"D. c #EBAD88",
"F. c #E3A888",
"G. c #ECB08B",
"H. c #E8B391",
"J. c #F4BD99",
"K. c #CABDBD",
"L. c #EABAA2",
"P. c #F7C29F",
"I. c #F4C4A5",
"U. c #F7CAAC",
"Y. c #8FA9D7",
"T. c #D7BDC3",
"R. c #C3C1CB",
"E. c #EDEBEC",
"W. c #EFEFF1",
"Q. c gray97",
"!. c None",
/* pixels */
"!.!.!.!.!.!.!.!.!.!.!.!.!.!.!.!.!.!.!.!.!.!.!.!.!.!.!.!.!.",
"!.!.!.!.!.!.!.!.!.!.!.!.!.!.!.!.!.!.!.!.!.!.!.!.!.!.!.!.!.",
"!.!.!.!.!.!.!.!.!.!.!.!.!.!.!.!.!.!.!.!.!.!.!.!.!.!.!.!.!.",
"!.!.!.!.!.!.!.!.!.!.!.!.!.!.!.!.!.!.!.!.!.!.!.!.!.!.!.!.!.",
"!.!.!.!.!.!.!.!.!.!.!.!.!.!.!.!.!.!.!.!.!.!.!.!.!.!.!.!.!.",
"!.!.!.!.!.!.!.!.!.!.!.!.!.!.!.!.!.!.!.!.!.!.!.!.!.!.!.!.!.",
"!.!.!.!.!.!.!.!.!.!.!.z z c c c K !.!.!.!.!.!.x @ !.!.!.!.",
"!.!.!.!.!.!.!.!.!.p i k % . . o c k z !.!.!.x + . !.!.!.!.",
"!.!.!.!.!.t g + u - o . . . . . . . - 9 - x % .   !.!.!.!.",
"!.!.!.!.!.!.b , o . . . . . . . . . . o l O .   !.!.!.!.!.",
"!.!.!.!.!.!.f % . . . . . . . . . . . . .   . !.!.!.!.!.!.",
"!.!.!.O 0 f + o . . . . . . . . . . . . . .   !.!.!.!.!.!.",
"!.!.y $.1 . . . . . . . . . . . . . . . . .   !.!.!.!.!.!.",
"!.!.@.y . . .   . - 9 . . . . . . . . . . .   !.!.!.!.!.!.",
"!.!.,   < x 9 . = I - . . . . . . . . . . .   !.!.!.!.!.!.",
"!.!.O !.9 u o ~ N t ~ & . . . . . . . . . .   !.!.!.!.!.!.",
"!.!.!.!.& !.!.y O y N ..%   .   . . . . . .   !.!.!.!.!.!.",
"!.!.!.!.!.!.!.. 7 t.0 1 = : >.v . . . . . .   !.!.!.!.!.!.",
"!.!.!.!.!.!.!.o ; Z.I.7.3.m 7.H.. . . . .   !.!.!.!.!.!.!.",
"!.!.!.!.!.!.!.+.D Y.I.P.G.o.3.F.. . . . .   !.!.!.!.!.!.!.",
"!.!.!.!.!.!.!.2.2.I.P.P.I.5.<.1 . . . .   !.!.!.!.!.!.!.!.",
"!.!.!.!.!.!.!.b D.P.P.P.D.3.n + . . .   !.!.!.!.!.!.!.!.!.",
"!.!.!.!.!.!.!.!.j >.5.4.#.P # X X   !.!.!.!.!.!.!.!.!.!.!.",
"!.!.!.!.!.!.!.!.!.. r { ] { q.g.a.B !.!.!.!.!.!.!.!.!.!.!.",
"!.!.!.!.!.!.!.!.!.!.* ( [ _ i.v.b.8.2 !.!.!.!.!.!.!.!.!.!.",
"!.!.!.!.!.!.!.!.!.!.!.Z U Y d.f.n.h.5 !.!.!.!.!.!.!.!.!.!.",
"!.!.!.!.!.!.!.!.!.!.!.G n.j.d.u.b.l.8.2 !.!.!.!.!.!.!.!.!.",
"!.!.!.!.!.!.!.!.!.!.!.G k.d.y.y.v.k.i.6 !.!.!.!.!.!.!.!.!.",
"!.!.!.!.!.!.!.!.!.!.!.C s.p.w.x.k.d.0.V !.!.!.!.!.!.!.!.!.",
"!.!.!.!.!.!.!.!.!.!.!.M r.m.P.F.z.u.9.V !.!.!.!.!.!.!.!.!.",
"!.!.!.!.!.!.!.!.!.!.!.C l.J.I.J.%.9.F V !.!.!.!.!.!.!.!.!.",
"!.!.!.!.!.!.!.!.!.!.!.!.H C.G.4.E F F V !.!.!.!.!.!.!.!.!.",
"!.!.!.!.!.!.!.!.!.!.!.!.!.J 1.=.R R D 3 !.!.!.!.!.!.!.!.!.",
"!.!.!.!.!.!.!.!.!.!.!.$ $ 0 V.B./ / T !.!.!.!.!.!.!.!.!.!.",
"!.!.!.!.!.!.!.!.!.!.! B.P d *.2.Q S * !.!.!.!.!.!.!.!.!.!.",
"!.!.!.!.!.!.!.!.!.; 2.B.P a s X.O.N.` K 8 !.!.!.!.!.!.!.!.",
"!.!.!.!.!.!.!.!.!.; -.V.e.s a *.T.&.} ' 8 !.!.!.!.!.!.!.!.",
"!.!.!.!.!.!.!.!.!.!.e W W A I ) ) [  .;.0 !.!.!.!.!.!.!.!.",
"!.!.!.!.!.!.!.!.!.!.!.!.!.; ' | | | ;.M.8 !.!.!.!.!.!.!.!.",
"!.!.!.!.!.!.!.!.!.!.!.!.8 A.Q.T.,.S.A.w !.!.!.!.!.!.!.!.!.",
"!.!.!.!.!.!.!.!.!.!.!.!.S W.Q.Q.Q.R.A !.!.!.!.!.!.!.!.!.!.",
"!.!.!.!.!.!.!.!.!.!.!.!.S Z.E.E.B.A !.!.!.!.!.!.!.!.!.!.!.",
"!.!.!.!.!.!.!.!.!.!.!.!.!.L ^ ^ q !.!.!.!.!.!.!.!.!.!.!.!.",
"!.!.!.!.!.!.!.!.!.!.!.!.!.!.!.!.!.!.!.!.!.!.!.!.!.!.!.!.!.",
"!.!.!.!.!.!.!.!.!.!.!.!.!.!.!.!.!.!.!.!.!.!.!.!.!.!.!.!.!.",
"!.!.!.!.!.!.!.!.!.!.!.!.!.!.!.!.!.!.!.!.!.!.!.!.!.!.!.!.!.",
"!.!.!.!.!.!.!.!.!.!.!.!.!.!.!.!.!.!.!.!.!.!.!.!.!.!.!.!.!.",
"!.!.!.!.!.!.!.!.!.!.!.!.!.!.!.!.!.!.!.!.!.!.!.!.!.!.!.!.!.",
"!.!.!.!.!.!.!.!.!.!.!.!.!.!.!.!.!.!.!.!.!.!.!.!.!.!.!.!.!.",
"!.!.!.!.!.!.!.!.!.!.!.!.!.!.!.!.!.!.!.!.!.!.!.!.!.!.!.!.!."
};
