/* XPM */
static char *result[] = {
/* columns rows colors chars-per-pixel */
"29 50 181 2 ",
"   c #060001",
".  c #0B0000",
"X  c #0C030B",
"o  c #0E0B0F",
"O  c #140906",
"+  c #160709",
"@  c #140A0C",
"#  c #1B090C",
"$  c #150607",
"%  c #090115",
"&  c #1E0C13",
"*  c #120612",
"=  c #34000A",
"-  c #22100B",
";  c #3B071A",
":  c #2D131B",
">  c #24151B",
",  c #321B14",
"<  c #311A1C",
"1  c #30151D",
"2  c #13260A",
"3  c #3E211A",
"4  c #060120",
"5  c #1F1A24",
"6  c #1E1521",
"7  c #180039",
"8  c #1F1B36",
"9  c #150426",
"0  c #3A1A25",
"q  c #3D1D29",
"w  c #2A2329",
"e  c #3A232A",
"r  c #2E2733",
"t  c #342938",
"y  c #3D3637",
"u  c #42081B",
"i  c #53001D",
"p  c #43261B",
"a  c #4B2C1F",
"s  c #411B29",
"d  c #4C1D34",
"f  c #561E37",
"g  c #6D0027",
"h  c #6C032A",
"j  c #670025",
"k  c #7F0027",
"l  c #69183D",
"z  c #452621",
"x  c #4A2E23",
"c  c #46222F",
"v  c #482C27",
"b  c #5A352A",
"n  c #4C2333",
"m  c #512932",
"M  c #5C253C",
"N  c #5E293F",
"B  c #582835",
"V  c #423A3C",
"C  c #4E3B32",
"Z  c #60293F",
"A  c #63363C",
"S  c #633C2B",
"D  c #574339",
"F  c #794A34",
"G  c #7B4B39",
"H  c #754128",
"J  c #1B0046",
"K  c #1B004C",
"L  c #25025C",
"P  c #3F374C",
"I  c #29006A",
"U  c #3F0B6F",
"Y  c #26007C",
"T  c #2E007E",
"R  c #360072",
"E  c #5E2942",
"W  c #463F40",
"Q  c #473F56",
"!  c #663147",
"~  c #6B3847",
"^  c #633658",
"/  c #420063",
"(  c #67006A",
")  c #474040",
"_  c #574E4E",
"`  c #49425B",
"'  c #4C4550",
"]  c #7E5A57",
"[  c #6E4F50",
"{  c #4F4864",
"}  c #564A7A",
"|  c #5D5575",
" . c #664665",
".. c #63537A",
"X. c #6B6473",
"o. c #86091F",
"O. c #AE0015",
"+. c #BC0F1A",
"@. c #940827",
"#. c #89043D",
"$. c #83273B",
"%. c #DA0008",
"&. c #E40209",
"*. c #F60000",
"=. c #F72828",
"-. c #815138",
";. c #9A543F",
":. c #895743",
">. c #965658",
",. c #B6724F",
"<. c #A96755",
"1. c #B46F57",
"2. c #A56B4D",
"3. c #966E77",
"4. c #946E6E",
"5. c #B57D76",
"6. c #C37A5B",
"7. c #C77B60",
"8. c #A98B4E",
"9. c #BD8464",
"0. c #D3865D",
"q. c #CD8F6D",
"w. c #C5987D",
"e. c #CE937F",
"r. c #DE9973",
"t. c #DA8F67",
"y. c #E09B74",
"u. c #E39F79",
"i. c #E6A47F",
"p. c #2A0087",
"a. c #22009E",
"s. c #260092",
"d. c #2B1D94",
"f. c #1E00A8",
"g. c #1F1DA4",
"h. c #1700BB",
"j. c #210CAF",
"k. c #134196",
"l. c #767599",
"z. c #1100CB",
"x. c #141DC2",
"c. c #0E00D4",
"v. c #0A00DD",
"b. c #2812C0",
"n. c #0700E5",
"m. c #0000F7",
"M. c #000EF7",
"N. c #001EF7",
"B. c #0015F7",
"V. c #0038F7",
"C. c #0435EC",
"Z. c #005CF7",
"A. c #0050F7",
"S. c #074AE4",
"D. c #416DC7",
"F. c #817988",
"G. c #8E868E",
"H. c #9B8989",
"J. c #9F9797",
"K. c #A58D8D",
"L. c #BE898B",
"P. c #A09A9A",
"I. c #B0929C",
"U. c #8A8FA4",
"Y. c #BF96B3",
"T. c #B4B0BC",
"R. c #F79C9C",
"E. c #DEA68D",
"W. c #EDB28E",
"Q. c #E0AF98",
"!. c #F2BA96",
"~. c #DC9CA3",
"^. c #C3B4AC",
"/. c #F7ABAB",
"(. c #F7C29F",
"). c #F7C3A1",
"_. c #CAC6CA",
"`. c #D7D4D4",
"'. c #F7E6DB",
"]. c #F5F5F5",
"[. c None",
/* pixels */
"[.[.[.[.[.[.[.[.[.[.[.[.[.[.[.[.[.[.[.[.[.[.[.[.[.[.[.[.[.",
"[.[.[.[.[.[.[.[.[.[.[.[.[.[.[.[.[.[.[.[.[.[.[.[.[.[.[.[.[.",
"[.[.[.[.[.[.[.[.[.[.[.[.[.[.[.[.[.[.[.[.[.[.[.[.[.[.[.[.[.",
"[.[.[.[.[.[.[.[.[.[.[.[.[.[.[.[.[.[.[.[.[.[.[.[.[.[.[.[.[.",
"[.[.[.[.[.[.[.[.[.[.[.[.[.[.[.[.[.[.[.[.[.[.[.[.[.[.[.[.[.",
"[.[.[.[.[.[.[.[.[.[.[.[.[.[.[.[.[.[.[.[.[.[.[.[.[.[.[.[.[.",
"[.[.[.[.[.[.[.[.[.[.[.[.[.[.[.[.[.[.[.[.[.[.[.[.[.[.[.[.[.",
"[.[.[.[.[.[.[.[.[.[.[.[.M E N E E d [.[.[.[.[.[.Z > [.[.[.",
"[.[.[.[.[.[.[.[.[.[.f ! ~ # # # : ~ ! f [.[.[.E q . [.[.[.",
"[.[.[.[.1 n 3 X [.s q . . . . . . . . n q : B q . .   [.[.",
"[.[.[.[.[.[.S a # $ . . . . . . . . . . & q 0 .     [.[.[.",
"[.[.[.[.[.[.[.B . . . . . . . . . . . . . # .   [.[.[.[.[.",
"[.[.[.[.> & @ s . . . . . . . . . . . . . . . .   [.[.[.[.",
"[.[.[.b b c $ . . . . . . . . . . . . . . . .   [.[.[.[.[.",
"[.[.H ,., . . . . . . . . . . . . . . . . . . . [.[.[.[.[.",
"[.[.;.- . O @ . . # ~ : . . . . . . . . . . .   [.[.[.[.[.",
"[.[.# X 2 D n # p m s $ . . . . . . . . . . .   [.[.[.[.[.",
"[.[.# [.[.0 # z G m ;.[ # . . . . . . . . . .   [.[.[.[.[.",
"[.[.[.[.[.[.[.@ # & 3 F ~ . . @ . . . . . . .   [.[.[.[.[.",
"[.[.[.[.[.[.[.[.  k.H.x p , c E.v . . . . . .   [.[.[.[.[.",
"[.[.[.[.[.[.[.[.. _ '.W.t.,.;.r.w.. . . . .   [.[.[.[.[.[.",
"[.[.[.[.[.[.[.C ] D.'.(.!.L.<.0.w.. . . . .   [.[.[.[.[.[.",
"[.[.[.[.[.[.[.D 9.Q.).(.).W.0.6.O . . . .   [.[.[.[.[.[.[.",
"[.[.[.[.[.[.[.v 9.!.(.(.!.u.6.A . . .     [.[.[.[.[.[.[.[.",
"[.[.[.[.[.[.[.[.x 4.y.y.y.>.A $ . .   [.[.[.[.[.[.[.[.[.[.",
"[.[.[.[.[.[.[.[.F z u +.@.&.#.Y Y K % [.[.[.[.[.[.[.[.[.[.",
"[.[.[.[.[.[.[.[.-.7./ @.o.&.( n.m.c.f.7 9 [.[.[.[.[.[.[.[.",
"[.[.[.[.[.[.[.[.v 1.R d.U ( v.m.n.c.m.b.3.:., [.[.[.[.[.[.",
"[.[.[.[.[.[.[.[.[.< a.C.S.n.m.m.s.p.c.^.(.!.2.[.[.[.[.[.[.",
"[.[.[.[.[.[.[.[.[.* g.A.M.m.m.a.I 7 I E.(.!.6.. [.[.[.[.[.",
"[.[.[.[.[.[.[.[.[.e ..B.m.m.m.a.T J   G i.t.F [.[.[.[.[.[.",
"[.[.[.[.[.[.[.[.. ~ 8.m.m.m.z.p.T J X [.p p [.[.[.[.[.[.[.",
"[.[.[.[.[.[.[.[.[.L j.V.N.m.z.T T J [.[.[.[.[.[.[.[.[.[.[.",
"[.[.[.[.[.[.[.[.[.% N.Z.Z.m.h.T T J [.[.[.[.[.[.[.[.[.[.[.",
"[.[.[.[.[.[.[.[.[.% x.Z.Z.m.h.T T J [.[.[.[.[.[.[.[.[.[.[.",
"[.[.[.[.[.[.[.[.[.[.8 l.U.l.} } * * [.[.[.[.[.[.[.[.[.[.[.",
"[.[.[.[.[.[.[.[.[.[.5 l.P.G...` ; l t [.[.[.[.[.[.[.[.[.[.",
"[.[.[.[.[.[.[.[.[.[.o >.4.V t ; g g ^ o [.[.[.[.[.[.[.[.[.",
"[.[.[.[.[.[.[.[.[.w ^.q.$.u = j g h ^ o [.[.[.[.[.[.[.[.[.",
"[.[.[.[.[.y V e = o.L.I. .h ; i h ^ 5 [.[.[.[.[.[.[.[.[.[.",
"[.[.[.[.W J.].~.%.*.%.O.O.l t n ^ ` 5 [.[.[.[.[.[.[.[.[.[.",
"[.[.[.[.W `.].R.*.*.*.*.*. .t ` { 5 [.[.[.[.[.[.[.[.[.[.[.",
"[.[.[.[.V _.]./.=.L.K.K.3.P o X o [.[.[.[.[.[.[.[.[.[.[.[.",
"[.[.[.[.r X._.`._.T.[ ' 5 [.[.[.[.[.[.[.[.[.[.[.[.[.[.[.[.",
"[.[.[.[.[.r y D r w [.[.[.[.[.[.[.[.[.[.[.[.[.[.[.[.[.[.[.",
"[.[.[.[.[.[.[.[.[.[.[.[.[.[.[.[.[.[.[.[.[.[.[.[.[.[.[.[.[.",
"[.[.[.[.[.[.[.[.[.[.[.[.[.[.[.[.[.[.[.[.[.[.[.[.[.[.[.[.[.",
"[.[.[.[.[.[.[.[.[.[.[.[.[.[.[.[.[.[.[.[.[.[.[.[.[.[.[.[.[.",
"[.[.[.[.[.[.[.[.[.[.[.[.[.[.[.[.[.[.[.[.[.[.[.[.[.[.[.[.[.",
"[.[.[.[.[.[.[.[.[.[.[.[.[.[.[.[.[.[.[.[.[.[.[.[.[.[.[.[.[."
};
