/* XPM */
static char *result[] = {
/* columns rows colors chars-per-pixel */
"29 50 213 2 ",
"   c #050000",
".  c #0B0000",
"X  c #0B000B",
"o  c #150509",
"O  c #1C0A0E",
"+  c #140708",
"@  c #0B0519",
"#  c #1B151A",
"$  c #170F13",
"%  c #280303",
"&  c #27130C",
"*  c #220D13",
"=  c #2B1516",
"-  c #33181B",
";  c #3D231B",
":  c #32231C",
">  c #0D0325",
",  c #150039",
"<  c #081534",
"1  c #10002D",
"2  c #371924",
"3  c #2B2323",
"4  c #372A28",
"5  c #382B3E",
"6  c #383131",
"7  c #582C19",
"8  c #47281C",
"9  c #6D391F",
"0  c #4A1A2C",
"q  c #551E33",
"w  c #450A22",
"e  c #790427",
"r  c #681B31",
"t  c #442629",
"y  c #522E24",
"u  c #5A3525",
"i  c #583424",
"p  c #4C2534",
"a  c #562B3A",
"s  c #463B3D",
"d  c #6A3A3E",
"f  c #6E3C24",
"g  c #7A4939",
"h  c #190043",
"j  c #051A45",
"k  c #1F0053",
"l  c #210054",
"z  c #07235E",
"x  c #3A3245",
"c  c #29314B",
"v  c #2E007E",
"b  c #032562",
"n  c #012C74",
"m  c #5A0651",
"M  c #6B0748",
"N  c #5C2F41",
"B  c #503252",
"V  c #753D54",
"C  c #7F3750",
"Z  c #70334C",
"A  c #691465",
"S  c #452C7C",
"D  c #4B4444",
"F  c #534E4E",
"G  c #5E5858",
"H  c #544E56",
"J  c #794649",
"K  c #7A4155",
"L  c #7A4258",
"P  c #79485F",
"I  c #675C5D",
"U  c #6E425F",
"Y  c #5C5474",
"T  c #5B5378",
"R  c #5B516E",
"E  c #68486B",
"W  c #625977",
"Q  c #7B4860",
"!  c #6A627B",
"~  c #787373",
"^  c #776C73",
"/  c #9C001A",
"(  c #A40814",
")  c #830021",
"_  c #8B003B",
"`  c #A10036",
"'  c #CC000C",
"]  c #DC0008",
"[  c #EA0004",
"{  c #F70000",
"}  c #F71F1F",
"|  c #DA3232",
" . c #F72424",
".. c #A3542D",
"X. c #A1773C",
"o. c #922F42",
"O. c #893348",
"+. c #87205D",
"@. c #A22055",
"#. c #8C1D6B",
"$. c #8C286B",
"%. c #8C5349",
"&. c #844757",
"*. c #9D5D53",
"=. c #955851",
"-. c #8D5055",
";. c #A75254",
":. c #926C5F",
">. c #A76458",
",. c #B16B5A",
"<. c #B9715A",
"1. c #A7785E",
"2. c #875667",
"3. c #A05B73",
"4. c #A54E66",
"5. c #8B7074",
"6. c #BE7A64",
"7. c #CA5249",
"8. c #EF5252",
"9. c #C76F53",
"0. c #C77C5B",
"q. c #CA634C",
"w. c #D35B65",
"e. c #C97878",
"r. c #AD802E",
"t. c #E6BD11",
"y. c #F7CB00",
"u. c #BA847D",
"i. c #CE825B",
"p. c #D3865D",
"a. c #D59979",
"s. c #CC8F71",
"d. c #2B0088",
"f. c #22009D",
"g. c #270090",
"h. c #023387",
"j. c #013791",
"k. c #1D00AB",
"l. c #1800B8",
"z. c #3A30BD",
"x. c #5C009B",
"c. c #0340AA",
"v. c #0144B4",
"b. c #2A60BD",
"n. c #3558AD",
"m. c #4E478B",
"M. c #544C82",
"N. c #61498E",
"B. c #5E79BE",
"V. c #7D64B4",
"C. c #0F00CF",
"Z. c #1100CB",
"A. c #1400C3",
"S. c #1412D4",
"D. c #1437C5",
"F. c #2F2CD0",
"G. c #0700E6",
"H. c #0000F7",
"J. c #000FF7",
"K. c #0416EE",
"L. c #0025F7",
"P. c #002DF7",
"I. c #2021E4",
"U. c #0D43D5",
"Y. c #0A52CC",
"T. c #0543EB",
"R. c #0559E4",
"E. c #004BF7",
"W. c #0044F7",
"Q. c #005DF7",
"!. c #0050F7",
"~. c #3566D1",
"^. c #4278D5",
"/. c #837A89",
"(. c #A27E83",
"). c #846BB6",
"_. c #7284AD",
"`. c #4588F7",
"'. c #659CF7",
"]. c #8C858C",
"[. c #94888A",
"{. c #9F9697",
"}. c #9B9399",
"|. c #9A8C92",
" X c #A69F9F",
".X c #B19191",
"XX c #ADA5A6",
"oX c #B1ABAB",
"OX c #B9B4B4",
"+X c #9196A9",
"@X c #C38D82",
"#X c #E79898",
"$X c #F79D9D",
"%X c #DFA283",
"&X c #EFB38F",
"*X c #ECB698",
"=X c #F3BC98",
"-X c #E2A98D",
";X c #DEB8A4",
":X c #E9BBB0",
">X c #F7C29F",
",X c #E8C4B2",
"<X c #B8C5DB",
"1X c #C7C2C2",
"2X c #CFCBCB",
"3X c #DAD7D7",
"4X c #F1D3C0",
"5X c #F7E4D7",
"6X c #E0D5E0",
"7X c #EEF2F7",
"8X c #F7F7F7",
"9X c #EBE9EB",
"0X c None",
/* pixels */
"0X0X0X0X0X0X0X0X0X0X0X0X0X0X0X0X0X0X0X0X0X0X0X0X0X0X0X0X0X",
"0X0X0X0X0X0X0X0X0X0X0X0X0X0X0X0X0X0X0X0X0X0X0X0X0X0X0X0X0X",
"0X0X0X0X0X0X0X0X0X0X0X0X0X0X0X0X0X0X0X0X0X0X0X0X0X0X0X0X0X",
"0X0X0X0X- f . . . . . . . . . . . . . . . . .   0X0X0X0X0X",
"0X0X0X0X0X0   . . . . . . . . . . . . . . . . .   0X0X0X0X",
"0X0X$ o = t . . . . . . . . . . . . . . . . . . . 0X0X0X0X",
"& & N p . . . . . . . . . . . . . . . . . . . . .   0X0X0X",
"..7 . . . . . . . . . . . . . . . . . . . . . . .   0X0X0X",
"9 . . . . . . . * - o . . . . . . . . . . . . . .   0X0X0X",
".   + 2 = . . * N N O . . . . . . . . . . . . .     0X0X0X",
"0X  2 Z -   O g d O - o . 2 . . . . . . . . . . .   0X0X0X",
"0X0Xq = . . y %.& 2 -.= . >.. . . & u . . . . . .   0X0X0X",
"0X0X* + . . = = 2 %.i.d + 0.p . . = =.u . . . . . 0X0X0X0X",
"0X0X0X0X4 1.i . O ; 8 Z a -.<.p . + t J 2   . 2 :.4 0X0X0X",
"0X0X0Xt s.0.y i :.~ 3  X~.U p.<.B b.|.s 5.:.y g p.a.: 0X0X",
"0X0X0X; s.p.*.*.,X9X^.c <XP &.&.E Y.I 3X9X;X=.K <.*X; 0X0X",
"0X0X0X; p.,.L >.,X8X`.R.+XP *X-XL _.R.'.8X:X*.>.p.&Xy 0X0X",
"0X0X0X0Xy ,.V K @X5X7X7Xa.L >X*XK a.7X8X5Xu.K ,.p.y 0X0X0X",
"0X0X0X0X0Xi i.*.L V L L K *X>X=X0.V L L V V V V = 0X0X0X0X",
"0X0X0X0X0X0X. . t >.%X=X=X=X*X*X=X=X=X%X>.2   . 0X0X0X0X0X",
"0X0X0X0X0X0X0X. @ a O.q.9.9.V K 0.9.q.O.q X 0X0X0X0X0X0X0X",
"0X0X0X0X0X0X0X< c.@.{ { / Z o.o.C / { { ` k @ 0X0X0X0X0X0X",
"0X0X0X0X0X0X0Xh.Q.+.[ { { e ' ' ) { { [ _ d., 0X0X0X0X0X0X",
"0X0X0X0X0X0Xj c.E.A [ { ' O.C 3.4.' { ] e d.l > 0X0X0X0X0X",
"0X0X0X0X0X0Xn Q.P.x.#.$.m |.1X8X6XM ` ` M v v , 0X0X0X0X0X",
"0X0X0X0X0Xj v.W.J.C.T.Q.D.N.8X8X).k.v v d.v v l > 0X0X0X0X",
"0X0X0X0X0Xb Q.P.C.g.U.Q.Q.D.).V.Z.H.A.k.v f.f.v 1 0X0X0X0X",
"0X0X0X0X0Xb Q.!.S.f.U.Q.Q.Q.r.X.H.H.H.Z.f.G.l.v > 0X0X0X0X",
"0X0X0X0X0Xb Q.Q.L.k.U.Q.Q.Q.y.t.H.H.H.G.G.H.k.v 1 0X0X0X0X",
"0X0X0X0X0X< j.Q.!.K.T.Q.Q.Q.z.F.H.H.H.H.H.Z.g.h 0X0X0X0X0X",
"0X0X0X0X0X0Xn Q.Q.L.W.Q.Q.Q.H.H.H.H.H.C.l.A.v , 0X0X0X0X0X",
"0X0X0X0X0X0X> j.Q.B.F.E.Q.J.M.M.H.H.H.S.S d., 0X0X0X0X0X0X",
"0X0X0X0X0X0X0Xh.n.].}.I.H.M.Y Y m.H.S.T T S h 0X0X0X0X0X0X",
"0X0X0X0X0X0X0X0Xx ]. X! Y Y Y Y W {.[.T Y 5 0X0X0X0X0X0X0X",
"0X0X0X0X0X0X0X0X. I {.! Y R . + W |.].T x . 0X0X0X0X0X0X0X",
"0X0X0X0X0X0X0X0X% r (.^ W # 0X0X$ /.[.E a o 0X0X0X0X0X0X0X",
"0X0X0X0X0X0X0X3 ( #X4Xs.[.W . 0X= :Xs.2.P w # 0X0X0X0X0X0X",
"0X0X0X0X0X0X4 J | 7.#Xe.U W . 0X%  .#X;.) M x # 0X0X0X0X0X",
"0X0X0X0X0X0XF e.8.8.8.| e R . 0X% { { } w.3.5.H 3 0X0X0X0X",
"0X0X0X0X0X0XG 3X8X8X2X X2.Y . 0X& | } $X8X8X1X{.6 0X0X0X0X",
"0X0X0X0X0X0X~ 8X8X8X8XoX X/.  0X# .X$X8X8X8X1X{.6 0X0X0X0X",
"0X0X0X0X0X0X~ 8X8X8X8XoX{.{.. 0X0X^ 8X8X8X8X1X{.6 0X0X0X0X",
"0X0X0X0X0X0XD oX8X8X2X X XD 0X0X0X4 [.8X8X3XoXI 3 0X0X0X0X",
"0X0X0X0X0X0X0Xs [.OX X Xs 0X0X0X0X0X6 F F s 6 3 0X0X0X0X0X",
"0X0X0X0X0X0X0X0X3 3 3 4 0X0X0X0X0X0X0X0X0X0X0X0X0X0X0X0X0X",
"0X0X0X0X0X0X0X0X0X0X0X0X0X0X0X0X0X0X0X0X0X0X0X0X0X0X0X0X0X",
"0X0X0X0X0X0X0X0X0X0X0X0X0X0X0X0X0X0X0X0X0X0X0X0X0X0X0X0X0X",
"0X0X0X0X0X0X0X0X0X0X0X0X0X0X0X0X0X0X0X0X0X0X0X0X0 0X0X0X0X",
"0X0X0X0X0X0X0X0X0X0X0X0X0X0X0X0X0X0X0X0X0X0X0X0X0X0X0X0X0X",
"0X0X0X0X0X0X0X0X0X0X0X0X0X0X0X0X0X0X0X0X0X0X0X0X0X0X0X0X0X"
};
