/* XPM */
static char *_dc079b5dd844076cfa9310b1aabc362CPACWCq9dDdpDloe[] = {
/* columns rows colors chars-per-pixel */
"29 50 199 2 ",
"   c None",
".  c #0B0000",
"X  c #120505",
"o  c #130C0C",
"O  c #1C0A0D",
"+  c #150708",
"@  c #120B12",
"#  c #161011",
"$  c #16111D",
"%  c #141B0B",
"&  c #200F0A",
"*  c #230E13",
"=  c #221614",
"-  c #2B131A",
";  c #2D1C1D",
":  c #26181B",
">  c #371A1E",
",  c #0F0234",
"<  c #171D32",
"1  c #1A1821",
"2  c #281D29",
"3  c #391B25",
"4  c #2D1436",
"5  c #3E2025",
"6  c #3B242C",
"7  c #372B2A",
"8  c #383426",
"9  c #2F2836",
"0  c #3C3536",
"q  c #3F323C",
"w  c #79071F",
"e  c #42261E",
"r  c #560B20",
"t  c #401E2C",
"y  c #5B1221",
"u  c #481335",
"i  c #700A2F",
"p  c #60112C",
"a  c #700B30",
"s  c #6C072E",
"d  c #42222D",
"f  c #4A2927",
"g  c #512D29",
"h  c #58362E",
"j  c #442230",
"k  c #4D2436",
"l  c #482E37",
"z  c #562B3C",
"x  c #593934",
"c  c #4C332C",
"v  c #673B36",
"b  c #674436",
"n  c #784837",
"m  c #7B503C",
"M  c #090249",
"N  c #1B1644",
"B  c #29154C",
"V  c #261149",
"C  c #21185C",
"Z  c #363046",
"A  c #2A2D48",
"S  c #1E1077",
"D  c #2C017A",
"F  c #30027E",
"G  c #381C6A",
"H  c #5B2F41",
"J  c #483E41",
"K  c #593541",
"L  c #5A3B4E",
"P  c #493F56",
"I  c #593652",
"U  c #7A2A47",
"Y  c #6D2345",
"T  c #4D176F",
"R  c #610160",
"E  c #452679",
"W  c #5F2875",
"Q  c #354877",
"!  c #46434E",
"~  c #534D53",
"^  c #584D54",
"/  c #4D4B57",
"(  c #6B4447",
")  c #7D4D46",
"_  c #635C5D",
"`  c #6C5153",
"'  c #76545E",
"]  c #584E72",
"[  c #5B506F",
"{  c #655666",
"}  c #7E5570",
"|  c #6A6572",
" . c #736C74",
".. c #7A757D",
"X. c #706768",
"o. c #B60519",
"O. c #A6071B",
"+. c #900026",
"@. c #832037",
"#. c #9E313C",
"$. c #CF0C16",
"%. c #D70813",
"&. c #D61315",
"*. c #EB0305",
"=. c #EA1112",
"-. c #F21A1A",
";. c #E43A3A",
":. c #833649",
">. c #962F46",
",. c #A6354A",
"<. c #875946",
"1. c #95594F",
"2. c #A94F53",
"3. c #B6534A",
"4. c #856350",
"5. c #9D6158",
"6. c #97705C",
"7. c #AB614D",
"8. c #A96C53",
"9. c #815463",
"0. c #835F70",
"q. c #BB5662",
"w. c #846E62",
"e. c #927263",
"r. c #88767D",
"t. c #8E6774",
"y. c #C45657",
"u. c #D0624B",
"i. c #C27C5E",
"p. c #D26162",
"a. c #C07B6B",
"s. c #E67D7D",
"d. c #B8866E",
"f. c #CB805D",
"g. c #C58C7A",
"h. c #C19177",
"j. c #D38E6B",
"k. c #E1A07B",
"l. c #1C1384",
"z. c #28018A",
"x. c #3D0097",
"c. c #28179F",
"v. c #0D11B7",
"b. c #1605B3",
"n. c #3B21BB",
"m. c #2426BD",
"M. c #5E3090",
"N. c #2A4693",
"B. c #756B80",
"V. c #464AA0",
"C. c #626DA3",
"Z. c #707FA0",
"A. c #1605C5",
"S. c #0808DC",
"D. c #081BDF",
"F. c #0B14C2",
"G. c #291BD4",
"H. c #0704E9",
"J. c #010AF4",
"K. c #0116F4",
"L. c #011FF0",
"P. c #0425E4",
"I. c #043CE5",
"U. c #0228F5",
"Y. c #403BCB",
"T. c #4B3DD3",
"R. c #034CDB",
"E. c #1F4BE1",
"W. c #004AF6",
"Q. c #0046F5",
"!. c #7B79C3",
"~. c #8D7580",
"^. c #9870A0",
"/. c #9B8A89",
"(. c #989295",
"). c #A58F97",
"_. c #AC8F91",
"`. c #9198BF",
"'. c #9793A1",
"]. c #A09AA1",
"[. c #BC92AF",
"{. c #B4AFB2",
"}. c #D69984",
"|. c #D8A797",
" X c #E8AD8A",
".X c #F4BD9A",
"XX c #F1B997",
"oX c #EBB494",
"OX c #C0AEB5",
"+X c #C3A8A7",
"@X c #EABAA1",
"#X c #F2B5B5",
"$X c #F7C29F",
"%X c #F6C3A1",
"&X c #EBCBB9",
"*X c #C2C0C7",
"=X c #ECC8C8",
"-X c #E6E5E6",
";X c #F2EEEE",
/* pixels */
"                                                          ",
"                                                          ",
"                                                          ",
"                                                          ",
"                                                          ",
"                                                          ",
"                                                          ",
"                                                          ",
"      K             t j d d 6 j                           ",
"    = - H       k z z 3 O O O d z k                       ",
"    # X - z d d d O X . . . . X + - 3 3 ; c x             ",
"      o o - d * X . . . . . . . . . X * e b               ",
"        o + + . . . . . . . . . . . . . 5 x               ",
"      o o . . . . . . . . . . . . . . . * 2 6 6           ",
"        o . . . . . . . . . . . . . . . . . - g m h       ",
"        o . . . . . . . . . . . X O X . . . . & n 8.      ",
"        o . . . . . . . . . . . O k t + . * ; % = b g     ",
"        o . . . . . . . . . . . * j d h > 3 K 8   ; d     ",
"        o . . . . . . . . . . O v <.v g x ; 6 6           ",
"        + . . . . . . + f - + 5 v 7 A @ :                 ",
"          + . . . . X x h.) f n <./.Z.1 :                 ",
"          # . . . . + 4.k.8.5.j. X&X..: 7                 ",
"            o . . . X b i.i.g.XX$X&X`.0.e.                ",
"              + . . . O m f.k..X$X%X@Xg.6.                ",
"                + . . . - 1.j. X.X.XoXd.<.                ",
"                  $ , M M u #.3.u.7.) (                   ",
"                  N v.P.S.R %.O.o.y f                     ",
"                  S P.W.K.x.o.+.w r                       ",
"                C F.W.U.J.A.T c.4                         ",
"                l.P.W.D.H.J.I.R.<                         ",
"              C b.L.Q.P.A.H.K.I.<                         ",
"              B z.S.U.E.Y.n.H.m.2                         ",
"              B D b.G.^.|.[.T.w.8                         ",
"              B D z.M.}..X@X!.V.9                         ",
"              V D F W a. X|.C.N.                          ",
"              B G E E } d.r.Q                             ",
"                P ] ] B.(.X.9 Z                           ",
"                l P [ r./.9.p '  .~                       ",
"              L @.( ` 5.:.i a t.(.X.                      ",
"            q :.$.q.+X_.U s Y ~.(._                       ",
"            J 2.=.%.,.>.U I { r...~                       ",
"            J r.y.=.*.*.&.c 7 0 0                         ",
"              { ).p.-.;.s.]._                             ",
"              ^  .OX#X=X;X-X(.~                           ",
"                  | *X-X;X-X'.!                           ",
"                    | ].{.].| /                           ",
"                                                          ",
"                                                          ",
"                                                          ",
"                                                          "
};
