/* XPM */
static char *result[] = {
/* columns rows colors chars-per-pixel */
"29 50 184 2 ",
"   c #0C0001",
".  c #120506",
"X  c #140B0D",
"o  c #1A0B0D",
"O  c #180908",
"+  c #1A1111",
"@  c #1E1A1A",
"#  c #240F13",
"$  c #251115",
"%  c #2C141C",
"&  c #2F1E1E",
"*  c #221D1D",
"=  c #31171B",
"-  c #341C1B",
";  c #1A2A12",
":  c #3E271F",
">  c #1B072A",
",  c #370C20",
"<  c #2C1729",
"1  c #361922",
"2  c #3C1C27",
"3  c #3D1E2D",
"4  c #331720",
"5  c #220D3C",
"6  c #2A1D34",
"7  c #311935",
"8  c #2A0C26",
"9  c #3C242B",
"0  c #3F2C2C",
"q  c #372825",
"w  c #322B34",
"e  c #362D39",
"r  c #38343A",
"t  c #2B232B",
"y  c #47271D",
"u  c #510D25",
"i  c #40142E",
"p  c #541C20",
"a  c #5C1D3B",
"s  c #6B042A",
"d  c #6E1E3F",
"f  c #44292B",
"g  c #532E2A",
"h  c #57352A",
"j  c #4B2434",
"k  c #492A35",
"l  c #542A3B",
"z  c #582338",
"x  c #47333A",
"c  c #5A3331",
"v  c #52353E",
"b  c #76212F",
"n  c #633A2D",
"m  c #60372E",
"M  c #623736",
"N  c #653B3B",
"B  c #69483A",
"V  c #714435",
"C  c #1D0043",
"Z  c #1D014A",
"A  c #22044E",
"S  c #28114B",
"D  c #220155",
"F  c #2B1451",
"G  c #361657",
"H  c #1F2945",
"J  c #3B3544",
"K  c #19006D",
"L  c #1A007A",
"P  c #2A036C",
"I  c #3A106D",
"U  c #260075",
"Y  c #2A0273",
"T  c #2D007B",
"R  c #370C71",
"E  c #3E2376",
"W  c #4E004F",
"Q  c #64014C",
"!  c #6E1E40",
"~  c #422741",
"^  c #5C2A44",
"/  c #423C45",
"(  c #4A3C47",
")  c #54374D",
"_  c #652345",
"`  c #613045",
"'  c #59464C",
"]  c #544E56",
"[  c #55495C",
"{  c #57515E",
"}  c #5D5556",
"|  c #4D4853",
" . c #6C5044",
".. c #785749",
"X. c #6B4C53",
"o. c #675351",
"O. c #574D67",
"+. c #5D5764",
"@. c #744961",
"#. c #665765",
"$. c #705C61",
"%. c #615971",
"&. c #765D77",
"*. c #68626D",
"=. c #7F6C65",
"-. c #6C6576",
";. c #736C73",
":. c #7B7378",
">. c #9D0A15",
",. c #A4031B",
"<. c #910D20",
"1. c #AB1D2F",
"2. c #CD111B",
"3. c #E91416",
"4. c #D92426",
"5. c #C44338",
"6. c #812746",
"7. c #8B5547",
"8. c #955F52",
"9. c #965B4C",
"0. c #A34552",
"q. c #986049",
"w. c #846252",
"e. c #83675E",
"r. c #AF6F54",
"t. c #B9735D",
"y. c #9F5D6A",
"u. c #926162",
"i. c #886F77",
"p. c #8C726D",
"a. c #A77A62",
"s. c #A56365",
"d. c #D07475",
"f. c #C3666D",
"g. c #F47677",
"h. c #AF806C",
"j. c #B7836B",
"k. c #CA825F",
"l. c #D6946E",
"z. c #C38E70",
"x. c #CF907E",
"c. c #D89874",
"v. c #C58169",
"b. c #2B0083",
"n. c #250092",
"m. c #2B0092",
"M. c #292189",
"N. c #0F00AA",
"B. c #0F00BF",
"V. c #1D04B2",
"C. c #1500B6",
"Z. c #3219B9",
"A. c #796F87",
"S. c #676094",
"D. c #5A54B9",
"F. c #0F01C9",
"G. c #1506C9",
"H. c #1D1BD7",
"J. c #0702E4",
"K. c #0400EB",
"L. c #897883",
"P. c #7883A0",
"I. c #978D94",
"U. c #999397",
"Y. c #8B8289",
"T. c #AAA3A9",
"R. c #BCA8A8",
"E. c #B5B1B9",
"W. c #C99B85",
"Q. c #C48792",
"!. c #DEA789",
"~. c #DBA186",
"^. c #EBAD8A",
"/. c #E8B798",
"(. c #F4BD9A",
"). c #F0BFA1",
"_. c #F7C29F",
"`. c #F6C5A6",
"'. c #B7B3C4",
"]. c #CAC5C9",
"[. c #CCC8CA",
"{. c #E8E2E2",
"}. c #F5EEEE",
"|. c None",
/* pixels */
"|.|.|.|.|.|.|.|.|.|.|.|.|.|.|.|.|.|.|.|.|.|.|.|.|.|.|.|.|.",
"|.|.|.|.|.|.|.|.|.|.|.|.|.|.|.|.|.|.|.|.|.|.|.|.|.|.|.|.|.",
"|.|.|.|.|.|.|.|.|.|.|.|.|.|.|.|.|.|.|.|.|.|.|.|.|.|.|.|.|.",
"|.|.|.|.|.|.|.|.|.|.|.|.|.|.|.|.|.|.|.|.|.|.|.|.|.|.|.|.|.",
"|.|.|.|.|.|.|.|.|.|.|.|.|.|.|.|.|.|.|.|.|.|.|.|.|.|.|.|.|.",
"|.|.|.|.|.|.|.|.|.|.|.|.|.|.|.|.|.|.|.|.|.|.|.|.|.|.|.|.|.",
"|.|.|.|.|.|.|.|.|.|.|.|.|.|.|.|.|.|.|.|.|.|.|.|.|.|.|.|.|.",
"|.|.|.|.|.|.|.|.|.|.|.|.|.|.|.|.|.|.|.|.|.|.|.|.|.|.|.|.|.",
"|.|.|.|.|.j |.|.|.|.|.|.|.|.|.|.|.|.|.|.|.|.|.|.|.|.|.|.|.",
"|.|.|.|.< l l |.|.|.j ` j 1 1 3 ` ^ |.|.|.|.|.|.|.|.|.|.|.",
"|.|.|.|.X o j l 9 l 1 o         o $ j |.|.q k f |.|.|.|.|.",
"|.|.|.|.+ X o 9 2 .                   # : V |.|.|.|.|.|.|.",
"|.|.|.|.|.|.+ . .                       - N |.|.|.|.|.|.|.",
"|.|.|.|.|.@                             o & 9 f |.|.|.|.|.",
"|.|.|.|.|.|.                                # h 7.|.|.|.|.",
"|.|.|.|.|.|.X                     $ $         O V q.|.|.|.",
"|.|.|.|.|.|.                    . = l = o % f ; & c |.|.|.",
"|.|.|.|.|.|.X                   $ N g m c & v |.|.q |.|.|.",
"|.|.|.|.|.|.X             O   O M n f $ : |.|.|.|.|.|.|.|.",
"|.|.|.|.|.|.+           f h.c y n  .P.H < |.|.|.|.|.|.|.|.",
"|.|.|.|.|.|.|.+         w.c.q.r.l./.T.t q |.|.|.|.|.|.|.|.",
"|.|.|.|.|.|.|.X .     . B k.t.~.(.`.E.S.a.|.|.|.|.|.|.|.|.",
"|.|.|.|.|.|.|.|.X       o 7.k.^._.).).~.a.|.|.|.|.|.|.|.|.",
"|.|.|.|.|.|.|.|.|.X X     % 7.d.^.^.^.a...|.|.|.|.|.|.|.|.",
"|.|.|.|.|.|.|.|.|.|.5 C 5 Z G 6.4.5.V B |.|.|.|.|.|.|.|.|.",
"|.|.|.|.|.|.|.|.|.S P T U B.V.Q <.>.p |.|.|.|.|.|.|.|.|.|.",
"|.|.|.|.|.|.|.|.G A D T Z N.K.m.W i |.|.|.|.|.|.|.|.|.|.|.",
"|.|.|.|.|.|.|.F P C P T Z L J.F.R ~ x |.|.|.|.|.|.|.|.|.|.",
"|.|.|.|.|.|.|.S D D T b.Y C C.G.p.^.W.$.|.|.|.|.|.|.|.|.|.",
"|.|.|.|.|.|.|.|.> Y T b.b.D K Z.W.(./.e.|.|.|.|.|.|.|.|.|.",
"|.|.|.|.|.|.|.|.6 Y b.C.F.U Z I s.c.z.7.|.|.|.|.|.|.|.|.|.",
"|.|.|.|.|.|.|.|.e E V.K.K.n.Z > 9 h ..|.|.|.|.|.|.|.|.|.|.",
"|.|.|.|.|.|.|.|.| A.D.H.J.n.Y < X.0 k x J / |.|.|.|.|.|.|.",
"|.|.|.|.|.|.|.|.( i.I.S.M.Y U 7 p.a u a O.O.J |.|.|.|.|.|.",
"|.|.|.|.|.|.|.|. .8.$.O.|.6 8 , _ s s d L.%.w |.|.|.|.|.|.",
"|.|.|.|.|.k | p.a. .x |.|.w ^ s s s d ;.I.-.w |.|.|.|.|.|.",
"|.|.|.|.) <.0.R.p.] |.|.|.e O.! d @.L.Y.;.{ |.|.|.|.|.|.|.",
"|.|.|.@ #.1.3.d.R.#.|.|.|.|./ J ( } } ] r |.|.|.|.|.|.|.|.",
"|.|.|.* :.y.2.3.4.b X.|.|.|.|.|.|.|.|.|.|.|.|.|.|.|.|.|.|.",
"|.|.|.|.#.T.Q.g.g.f.' |.|.|.|.|.|.|.|.|.|.|.|.|.|.|.|.|.|.",
"|.|.|.|.|.:.[.}.}.{.U.' |.|.|.|.|.|.|.|.|.|.|.|.|.|.|.|.|.",
"|.|.|.|.|.|.*.E.[.].U.| |.|.|.|.|.|.|.|.|.|.|.|.|.|.|.|.|.",
"|.|.|.|.|.|.|.+.-.-.{ |.|.|.|.|.|.|.|.|.|.|.|.|.|.|.|.|.|.",
"|.|.|.|.|.|.|.|.r r |.|.|.|.|.|.|.|.|.|.|.|.|.|.|.|.|.|.|.",
"|.|.|.|.|.|.|.|.|.|.|.|.|.|.|.|.|.|.|.|.|.|.|.|.|.|.|.|.|.",
"|.|.|.|.|.|.|.|.|.|.|.|.|.|.|.|.|.|.|.|.|.|.|.|.|.|.|.|.|.",
"|.|.|.|.|.|.|.|.|.|.|.|.|.|.|.|.|.|.|.|.|.|.|.|.|.|.|.|.|.",
"|.|.|.|.|.|.|.|.|.|.|.|.|.|.|.|.|.|.|.|.|.|.|.|.|.|.|.|.|.",
"|.|.|.|.|.|.|.|.|.|.|.|.|.|.|.|.|.|.|.|.|.|.|.|.|.|.|.|.|.",
"|.|.|.|.|.|.|.|.|.|.|.|.|.|.|.|.|.|.|.|.|.|.|.|.|.|.|.|.|."
};
