/* XPM */
static char *_9f47ddd4be147a9f2355bd9191db56fFWKeiLqr1aGdI7n3[] = {
/* columns rows colors chars-per-pixel */
"29 50 193 2 ",
"   c None",
".  c #0B0000",
"X  c #0F0808",
"o  c #120505",
"O  c #160709",
"+  c #140C0C",
"@  c #1B0A0C",
"#  c #1B120D",
"$  c #150F10",
"%  c #1F0C10",
"&  c #161111",
"*  c #1B1415",
"=  c #270A15",
"-  c #3E091B",
";  c #291117",
":  c #2C141A",
">  c #24191B",
",  c #261316",
"<  c #31161D",
"1  c #31191F",
"2  c #1A240E",
"3  c #190235",
"4  c #131739",
"5  c #221C25",
"6  c #331B22",
"7  c #3C1C26",
"8  c #2B163A",
"9  c #3E1D32",
"0  c #2D272E",
"q  c #332324",
"w  c #3B2323",
"e  c #3B242A",
"r  c #372C3A",
"t  c #372636",
"y  c #38333B",
"u  c #232638",
"i  c #5A0121",
"p  c #5E092A",
"a  c #50142F",
"s  c #401E34",
"d  c #6C042B",
"f  c #670D32",
"g  c #73113A",
"h  c #442327",
"j  c #42222D",
"k  c #4C2C28",
"l  c #592E2C",
"z  c #46302B",
"x  c #54362B",
"c  c #5C3728",
"v  c #482432",
"b  c #4E2C32",
"n  c #4F2D3A",
"m  c #442130",
"M  c #542C3A",
"N  c #47373A",
"B  c #583A33",
"V  c #613D2E",
"C  c #673C35",
"Z  c #622833",
"A  c #66463A",
"S  c #774A3A",
"D  c #784938",
"F  c #1E0049",
"G  c #1D005B",
"H  c #2A164E",
"J  c #29154B",
"K  c #250257",
"L  c #2C1955",
"P  c #37214B",
"I  c #333043",
"U  c #260067",
"Y  c #2D0079",
"T  c #2C077A",
"R  c #311B7A",
"E  c #252275",
"W  c #5A1B5D",
"Q  c #5A2E40",
"!  c #473B48",
"~  c #523544",
"^  c #533A53",
"/  c #482950",
"(  c #622946",
")  c #702F4C",
"_  c #613145",
"`  c #40137A",
"'  c #531C70",
"]  c #6A006B",
"[  c #600170",
"{  c #49444F",
"}  c #4D4848",
"|  c #594745",
" . c #4E435A",
".. c #55455B",
"X. c #5A5356",
"o. c #6C4243",
"O. c #784542",
"+. c #7B5848",
"@. c #795A56",
"#. c #4D4262",
"$. c #534962",
"%. c #5B5777",
"&. c #625C66",
"*. c #72676A",
"=. c #796F75",
"-. c #8E0128",
";. c #810131",
":. c #950C27",
">. c #AB1626",
",. c #AE2F30",
"<. c #B42C30",
"1. c #DD0105",
"2. c #C80019",
"3. c #DE0D11",
"4. c #DC1016",
"5. c #ED0A0B",
"6. c #F30E0E",
"7. c #C21922",
"8. c #F43939",
"9. c #874B48",
"0. c #865C4B",
"q. c #825F5B",
"w. c #996956",
"e. c #996B52",
"r. c #B46D59",
"t. c #B97858",
"y. c #A66852",
"u. c #814E60",
"i. c #A05C60",
"p. c #936D71",
"a. c #B56B6C",
"s. c #A17060",
"d. c #D95353",
"f. c #C37B5E",
"g. c #B4846A",
"h. c #B28377",
"j. c #CE906D",
"k. c #D2977A",
"l. c #DE9B79",
"z. c #D49C7B",
"x. c #CC8869",
"c. c #E39E7D",
"v. c #1E068A",
"b. c #2C0083",
"n. c #22008D",
"m. c #220098",
"M. c #371382",
"N. c #1E00A5",
"B. c #1500BB",
"V. c #1415B2",
"C. c #311FA2",
"Z. c #5636A3",
"A. c #6D6A81",
"S. c #1500C8",
"D. c #0B03DE",
"F. c #0C00D6",
"G. c #1000D4",
"H. c #0A2DDB",
"J. c #3621C5",
"K. c #3337CF",
"L. c #0500E9",
"P. c #0D19E8",
"I. c #0101F4",
"U. c #010BF5",
"Y. c #0019F7",
"T. c #063DE8",
"R. c #0139F4",
"E. c #2B5DC5",
"W. c #386CD4",
"Q. c #0154F6",
"!. c #857D92",
"~. c #987F93",
"^. c #999599",
"/. c #978586",
"(. c #AF888C",
"). c #A8A3A7",
"_. c #B1A5AE",
"`. c #BCB9B9",
"'. c #C5A39D",
"]. c #DBA489",
"[. c #E4A987",
"{. c #EFBB9C",
"}. c #F4BE9B",
"|. c #C79BAB",
" X c #C7B2B6",
".X c #F5C09E",
"XX c #F6C3A1",
"oX c #E1C4B8",
"OX c #D1C0C2",
"+X c #D4CDD0",
"@X c #CDC7C8",
"#X c #F6DDDD",
"$X c #ECEBEB",
/* pixels */
"                                                          ",
"                                                          ",
"                                                          ",
"                                                          ",
"                                                          ",
"                                                          ",
"                                                          ",
"        m                                                 ",
"        6 Q         Q _ j < < 6 _ _                       ",
"      * o ; Q v j n ; @ o . . . O % v 7   q k b           ",
"        & + ; j : o . . . . . . . . o % , V B             ",
"          & + @ . . . . . . . . . . . . O o.              ",
"          & . . . . . . . . . . . . . . o 7 6 e           ",
"          + . . . . . . . . . . . . . . . . = w S A       ",
"          & . . . . . . . . . . . O @ . . . . o c e.      ",
"          * . . . . . . . . . . . : M ; o O 1 2 # x C     ",
"          & . . . . . . . . . . o 7 h l l , n N   > M     ",
"          & . . . . . . . o . . h 9.S h c w   ~           ",
"          + + . . . . . @ A : @ k k { 4 *                 ",
"            + . . . . o +.k.D D y.g.).u *                 ",
"              + . . . O w.x.y.x.[.XX+X%.|                 ",
"              $ X . . o x t.f.[..XXXoX~.h.|               ",
"                + X . . O O.f.[.}..X.X[.g.B               ",
"                    $ . . ; O.r.l.c.k.s.+.                ",
"                    5 3 G K g 7.<.,.l C A                 ",
"                P H v.B.L.G.] 2.-.;.W r.S                 ",
"              @.p.Z.D.F.D.I.S.[ ` M.' w.O.                ",
"            0.z.{.|.J.n.n.D.I.D.T.H.T /                   ",
"            0.l.}.]./ F U N.I.I.Y.T.R 8                   ",
"            +.t.j.w.q 3 Y m.L.I.I.P.@.n                   ",
"                z     J Y b.S.I.U.P.q.~                   ",
"                      H Y b.B.U.R.R.V.L                   ",
"                      H Y b.B.U.Q.Q.V.4                   ",
"                      8 K R C.K.W.E.E                     ",
"                    t s = #.%.!.^.A.I                     ",
"                    ^ f i 9  .=./.*.y                     ",
"                  5 ^ d d i = - 9.w.*.                    ",
"                    ! ( d i - p u.'.(.Z b ~ |             ",
"                    r ..( a t g :.>.4.1.>.OX`.=.          ",
"                      ! $.! r ) 3.5.5.5.6.#X$X^.X.        ",
"                        y 0 0 ..i.a.a.d.8.#X$X^.}         ",
"                                ! &.=._. X@X).&.          ",
"                                    N { X.X.X.            ",
"                                                          ",
"                                                          ",
"                                                          ",
"                                                          ",
"                                                          ",
"                                                          ",
"                                                          "
};
