/* XPM */
static char *_56cfaeac2d545e1d4706fb372abed4833OUaxuTM5equTOK[] = {
/* columns rows colors chars-per-pixel */
"29 50 160 2 ",
"   c None",
".  c #040101",
"X  c #0B0000",
"o  c #0D0409",
"O  c #130406",
"+  c #160709",
"@  c #160B0F",
"#  c #1C0A0C",
"$  c #160906",
"%  c #0B0018",
"&  c #110414",
"*  c #1A0F15",
"=  c #1D1212",
"-  c #290A0A",
";  c #230D13",
":  c #280F18",
">  c #280E16",
",  c #231115",
"<  c #2B1718",
"1  c #35171B",
"2  c #0E0026",
"3  c #140025",
"4  c #1E1724",
"5  c #2C1B23",
"6  c #3B1424",
"7  c #3C1D23",
"8  c #3F1D2A",
"9  c #361923",
"0  c #362D2D",
"q  c #3C2927",
"w  c #352534",
"e  c #3E3539",
"r  c #492B1D",
"t  c #400E22",
"y  c #4E1E32",
"u  c #561F35",
"i  c #5A1E3A",
"p  c #710C30",
"a  c #42212D",
"s  c #542527",
"d  c #4B2534",
"f  c #5B243B",
"g  c #542A3B",
"h  c #5B2A3E",
"j  c #532A37",
"k  c #433639",
"l  c #5A3132",
"z  c #6B3F2B",
"x  c #663F2C",
"c  c #6A402F",
"v  c #6F4333",
"b  c #7C483E",
"n  c #190044",
"m  c #1F004A",
"M  c #0F1C53",
"N  c #3B3245",
"B  c #000067",
"V  c #000068",
"C  c #0A0068",
"Z  c #250066",
"A  c #350D6A",
"S  c #2E007E",
"D  c #2A0073",
"F  c #350D7D",
"G  c #681C41",
"H  c #5D2840",
"J  c #4B3B52",
"K  c #632C43",
"L  c #69334A",
"P  c #653046",
"I  c #41227A",
"U  c #524A4A",
"Y  c #5D5555",
"T  c #6C4845",
"R  c #64445D",
"E  c #72405C",
"W  c #594C76",
"Q  c #56407D",
"!  c #5D5575",
"~  c #624464",
"^  c #7F5E6A",
"/  c #615976",
"(  c #71697F",
")  c #C9000D",
"_  c #F70000",
"`  c #CC2128",
"'  c #DE2B2B",
"]  c #EC3434",
"[  c #F73535",
"{  c #8A5339",
"}  c #945A3D",
"|  c #A73846",
" . c #864C56",
".. c #9C5B58",
"X. c #A15B44",
"o. c #A46748",
"O. c #A66B4D",
"+. c #AA6658",
"@. c #A67255",
"#. c #B67254",
"$. c #8B5969",
"%. c #8F6874",
"&. c #956771",
"*. c #8C7072",
"=. c #907070",
"-. c #9B7578",
";. c #A56066",
":. c #D54949",
">. c #CF5050",
",. c #F74444",
"<. c #CD696F",
"1. c #C96572",
"2. c #BC846A",
"3. c #AA847A",
"4. c #B28B79",
"5. c #CE825B",
"6. c #D4865D",
"7. c #C49A7E",
"8. c #E09B74",
"9. c #1A078C",
"0. c #10009E",
"q. c #2B0086",
"w. c #3F1682",
"e. c #24009A",
"r. c #1D00A9",
"t. c #0400BD",
"y. c #421D80",
"u. c #706780",
"i. c #746885",
"p. c #586AB1",
"a. c #0502C3",
"s. c #1100CA",
"d. c #0B00DC",
"f. c #0E00D3",
"g. c #0700E4",
"h. c #0800E3",
"j. c #0000F7",
"k. c #010BF5",
"l. c #0012F7",
"z. c #003DF7",
"x. c #0D5EEB",
"c. c #0050F7",
"v. c #005DF7",
"b. c #1E67EA",
"n. c #887A87",
"m. c #8F878F",
"M. c #9A888C",
"N. c #9F9797",
"B. c #A99797",
"V. c #B99191",
"C. c #A69FA2",
"Z. c #AAA3A3",
"A. c #BCB7B7",
"S. c #D19984",
"D. c #E4A889",
"F. c #E6B3B1",
"G. c #DAD7D7",
"H. c #E6CACA",
"J. c #F7DBDB",
"K. c gray97",
/* pixels */
"                                                          ",
"                                                          ",
"                                                          ",
"                                                          ",
"                                                          ",
"                                                          ",
"                                                          ",
"                                                          ",
"                                                          ",
"                          f K h f H i         y           ",
"                        u L > # # > L K u   H # .         ",
"            6 8 o     t ; X X X X X X X j j + X           ",
"              1 c o 9 P , X X X X X X X O 9 a o           ",
"                < 8 O + X X X X X X X X X X + X o         ",
"                  X X X X X X X X X X X X X X X .         ",
"            , d + X X X X X X X X X X X X X X X X o       ",
"          } z + X X X X X X X X X X X X X X X X X .       ",
"        X.{ X X X X X X X X X X X X X X X X X X X .       ",
"        s $ . 5 d X X X X X X X X X X X X X X X X .       ",
"        ;     h ; X X X X X X X X X X X X X X X X .       ",
"              : X X X X X X X X X X X X X X X X .         ",
"                # z X X X X X X X X X X X X X X r <       ",
"                7.S.7 X X X X X X X X X X X X ; +.5..     ",
"                2.8.b O X X X X X X X X X X X l 6.6..     ",
"                r 6...# X X X X X X X X X X X  .6.x       ",
"                  < h g # X X X X X X X X + d h 7         ",
"                      , 8 a O X X X X X 8 8 ;             ",
"                  @     & 9.a.0.Z Z 9.t.A @               ",
"                q O.v M l.j.j.j.j.j.f.e.S S n 2           ",
"                @.V.p.x.z.j.j.j.j.g.S S S S S D n 3       ",
"              . 4.b.v.c.k.j.j.j.j.g.S S S S S S S  .,     ",
"                T z.z.k.d.j.j.j.j.g.S S S S S S S ;.o.    ",
"                  V B C r.j.j.j.j.g.S S S S m S S ;.o.    ",
"                      % h.j.j.j.j.d.S S S S 3 % j #.1     ",
"                      & e.s.s.s.s.q.S S S S 2     .       ",
"                      & I S S S S S S S S S 2             ",
"                      * u.i.y.F F F w.Q W W 4             ",
"                      k E $.3.^ J / m.N./ ! N             ",
"                    = *.) 1.D.2.0 R <.G.n.G ~ o           ",
"                    , =._ >.F.&.w -.[ ] ` p ~ o           ",
"                    , B.' ,.:.| ~ C.K.A.M.%.( o           ",
"                      Y H.J.Z.n.! e U k 0 0 5 .           ",
"                        - + o o .                         ",
"                                                          ",
"                                                          ",
"                                                          ",
"                                                          ",
"                                                          ",
"                                                          ",
"                                                          "
};
