/* XPM */
static char *d7aadcc4a5954c70880b86b43c1d3e31FcgynPubSee90ujB[] = {
/* columns rows colors chars-per-pixel */
"29 50 175 2 ",
"   c None",
".  c #060101",
"X  c #0B0000",
"o  c #05020C",
"O  c #130506",
"+  c #140509",
"@  c #13090C",
"#  c #1A0A0D",
"$  c #190809",
"%  c #0A1E02",
"&  c #190C17",
"*  c #1D1111",
"=  c #0A0417",
"-  c #210F0D",
";  c #21100D",
":  c #32140E",
">  c #220D12",
",  c #3C0217",
"<  c #2B141C",
"1  c #2C1B1F",
"2  c #371D17",
"3  c #283717",
"4  c #0D0029",
"5  c #060134",
"6  c #160034",
"7  c #180030",
"8  c #19052C",
"9  c #231B24",
"0  c #331923",
"q  c #3A1C24",
"w  c #3C1B26",
"e  c #2A2329",
"r  c #3A2922",
"t  c #2D2633",
"y  c #2B2836",
"u  c #470019",
"i  c #53031F",
"p  c #42261A",
"a  c #42291E",
"s  c #522F1F",
"d  c #410F22",
"f  c #4C172B",
"g  c #431E2B",
"h  c #491E2E",
"j  c #421426",
"k  c #4F1D31",
"l  c #531C33",
"z  c #5A1D36",
"x  c #6A092F",
"c  c #44242D",
"v  c #432823",
"b  c #4F3A2F",
"n  c #5E3928",
"m  c #583425",
"M  c #4C2534",
"N  c #5C253C",
"B  c #542539",
"V  c #52323C",
"C  c #64242C",
"Z  c #683F3D",
"A  c #6D402D",
"S  c #734631",
"D  c #0A0647",
"F  c #1D004B",
"G  c #06005F",
"H  c #140052",
"J  c #061E50",
"K  c #240449",
"L  c #352B44",
"P  c #373346",
"I  c #3D3544",
"U  c #3F394F",
"Y  c #270064",
"T  c #2E007E",
"R  c #2C0077",
"E  c #340B7D",
"W  c #31067D",
"Q  c #24147C",
"!  c #38137C",
"~  c #5B2D40",
"^  c #57294C",
"/  c #41394F",
"(  c #512257",
")  c #623344",
"_  c #673948",
"`  c #7C2C48",
"'  c #471479",
"]  c #402968",
"[  c #43267A",
"{  c #46297C",
"}  c #4D3978",
"|  c #4C4343",
" . c #5C5353",
".. c #72435C",
"X. c #605A5A",
"o. c #524A66",
"O. c #57506E",
"+. c #5D5575",
"@. c #7B4E63",
"#. c #645C79",
"$. c #6F6666",
"%. c #706A6A",
"&. c #6D657D",
"*. c #70687F",
"=. c #AF072F",
"-. c #BD202C",
";. c #E40B0F",
":. c #8A573C",
">. c #895236",
",. c #A9633F",
"<. c #853D55",
"1. c #945C40",
"2. c #9A5D4C",
"3. c #8F6046",
"4. c #91644B",
"5. c #A66848",
"6. c #B5724F",
"7. c #AB6C52",
"8. c #A86558",
"9. c #895A68",
"0. c #80647A",
"q. c #AE6765",
"w. c #A77D64",
"e. c #AA6B7C",
"r. c #A57676",
"t. c #C27A58",
"y. c #F76464",
"u. c #CE845D",
"i. c #D4865D",
"p. c #D5885F",
"a. c #C6846D",
"s. c #D88C64",
"d. c #170093",
"f. c #29008D",
"g. c #250095",
"h. c #240099",
"j. c #2B0A92",
"k. c #1C00AC",
"l. c #1200BD",
"z. c #1615BC",
"x. c #0220A5",
"c. c #695287",
"v. c #756D81",
"b. c #7A7284",
"n. c #0F00CF",
"m. c #1300C7",
"M. c #1100CB",
"N. c #0A00DC",
"B. c #2A16C9",
"V. c #0400EC",
"C. c #0000F6",
"Z. c #000AF6",
"A. c #001FF7",
"S. c #281FE9",
"D. c #0028F7",
"F. c #0032F0",
"G. c #0155E1",
"H. c #0058F7",
"J. c #885889",
"K. c #817988",
"L. c #8B838D",
"P. c #9B8A8E",
"I. c #9E9596",
"U. c #B585A0",
"Y. c #A19DAF",
"T. c #A5A0A2",
"R. c #AAA3A3",
"E. c #EFB490",
"W. c #F4BD99",
"Q. c #C69CB0",
"!. c #E1BCBC",
"~. c #F7C29F",
"^. c #CDCACA",
"/. c #EAE3E4",
"(. c #F6F6F6",
/* pixels */
"                                                          ",
"                                                          ",
"                                                          ",
"                                                          ",
"                                                          ",
"                                                          ",
"                                                          ",
"                    f N B N N N z       l ~ @             ",
"                l k M g X X X > B h l f h + X             ",
"        2 2 @ h B # X X X X X X X X 0 0 > X               ",
"          c > # # X X X X X X X X X X + + .               ",
"          $ X X X X X X X X X X X X X X X X .             ",
"      0 < X X X X X X X X X X X X X X X X X X             ",
"  p >.q > X X X X X X X X X X X X X X X X X X             ",
"  ,.m X X X X X X X X X X X X X X X X X X X X             ",
"C s . % < # X X X X X X X X X X X X X X X X X             ",
"d .   3 ) > X X X X X X X X X X X X X X X X X             ",
"O     j # X X X X X X X X X X X X X X X X X X             ",
"      X   - $ X X X X X X X X X X X X X X X 2             ",
"        r w.Z X X X X X X X X X X X X X X q 6.v           ",
"        b ~.a.O X X X X X X X X X X X X X 2.i.S           ",
"        a u.p.) X X X X X X X X X X X X c t.u.A           ",
"          m 7._ > X X X X X X X X X X $ ~ 8.S             ",
"            0 w w > X X X X X X X X + g w 0               ",
"                8 ( ~ X X X X X X M ^ K @                 ",
"              D z.Z.k.C.M.h.h.k.N.g.T T H 5               ",
"          = J F.H.D.C.C.C.C.m.k.T T T T M.C.G 5           ",
"      o D x.G.H.A.Z.C.C.C.C.f.T T T T T g.V.V.d.4         ",
"    1 7.J.D.A.Z.m.M.C.C.C.k.T T T T T R R f.V.C.j.&       ",
"    4.W.Q.S.C.l.Y k.n.n.k.T T T T T T K 6 R g.B.e.t.v     ",
"    w.~.~.U.Q 7 7 T T T T T T T T T T F o 6 ' q.i.i.:.    ",
"    3.W.E.s.p @ ] T T T T T T T T T E L     c i.i.i.:.    ",
"      1.5.n O ..=.W T T T T T W ! ! +.P       n 5.1.:     ",
"        -   ; 9.-.} [ [ [ [ { c.b.#.+.P         *         ",
"            # r.;.<.+.+.+.L t K.I.&.o.9                   ",
"            X !.y./.T.L.I O i I 0.@.x ,                   ",
"              T.(./.R.I. .u <.^.(.^.` u                   ",
"              | %. .| | e ) I.Y.Y.Y.P.V                   ",
"                        * $.*.+.+.+.v.X.                  ",
"                          / +.+.+.+.+.P                   ",
"                          / +.+.+.+.+.P                   ",
"                          / +.+.+.+.+.P                   ",
"                          U +.+.+.+.+.P                   ",
"                          y +.+.+.+.O.t                   ",
"                            t t t t e                     ",
"                                                          ",
"                                                          ",
"                                                          ",
"                                                          ",
"                                                          "
};
