/* XPM */
static char *result[] = {
/* columns rows colors chars-per-pixel */
"29 50 252 2 ",
"   c black",
".  c #020000",
"X  c #060000",
"o  c #070101",
"O  c #060602",
"+  c #080000",
"@  c #0A0000",
"#  c #0B0000",
"$  c #0A0001",
"%  c #080003",
"&  c #080303",
"*  c #0C0101",
"=  c #0D0101",
"-  c #0F0203",
";  c #0C0304",
":  c #080404",
">  c #090407",
",  c #0D0504",
"<  c #0B0901",
"1  c #0F0609",
"2  c #110202",
"3  c #120503",
"4  c #100304",
"5  c #110305",
"6  c #130604",
"7  c #120406",
"8  c #140507",
"9  c #110806",
"0  c #150508",
"q  c #160609",
"w  c #160709",
"e  c #18070A",
"r  c #12080B",
"t  c #14080A",
"y  c #150A0D",
"u  c #18080A",
"i  c #1B0D0A",
"p  c #1F0E0A",
"a  c #070115",
"s  c #060016",
"d  c #0B0015",
"f  c #100C11",
"g  c #170C11",
"h  c #130D14",
"j  c #1A0C10",
"k  c #1A0F1A",
"l  c #240000",
"z  c #24000C",
"x  c #23040D",
"c  c #330B0F",
"v  c #200812",
"b  c #220C12",
"n  c #260C14",
"m  c #260D15",
"M  c #261016",
"N  c #271016",
"B  c #251617",
"V  c #2E1C17",
"C  c #2C131B",
"Z  c #2A141B",
"A  c #29111C",
"S  c #2E141C",
"D  c #281B1D",
"F  c #331B13",
"G  c #331D15",
"H  c #371E16",
"J  c #3D1C17",
"K  c #30141D",
"L  c #020023",
"P  c #090023",
"I  c #0C0031",
"U  c #10053C",
"Y  c #1C003D",
"T  c #231F27",
"R  c #2E1A20",
"E  c #3C1327",
"W  c #3B1724",
"Q  c #351821",
"!  c #351923",
"~  c #361A25",
"^  c #3D1822",
"/  c #3A1B26",
"(  c #3C1D29",
")  c #3E1D29",
"_  c #3F1E29",
"`  c #3F1C2D",
"'  c #3D193F",
"]  c #3D2C27",
"[  c #292431",
"{  c #2B2634",
"}  c #322B3B",
"|  c #48061F",
" . c #41231F",
".. c #4C2A1B",
"X. c #431429",
"o. c #481329",
"O. c #401F2B",
"+. c #511B32",
"@. c #581C37",
"#. c #661728",
"$. c #452726",
"%. c #4A2624",
"&. c #45212E",
"*. c #462B2D",
"=. c #4C322A",
"-. c #523527",
";. c #5E3A28",
":. c #462230",
">. c #4B2131",
",. c #4D2632",
"<. c #522433",
"1. c #542237",
"2. c #582338",
"3. c #5A233C",
"4. c #57283B",
"5. c #58283B",
"6. c #5E283F",
"7. c #6B2C2E",
"8. c #723D24",
"9. c #264919",
"0. c #5F473B",
"q. c #6A412F",
"w. c #79442C",
"e. c #1C0046",
"r. c #1D0046",
"t. c #15004D",
"y. c #1C004C",
"u. c #1E004C",
"i. c #050E50",
"p. c #030278",
"a. c #09067F",
"s. c #250065",
"d. c #29006B",
"f. c #2D096B",
"g. c #2A0071",
"h. c #280072",
"j. c #2B0072",
"k. c #2D007B",
"l. c #2E007E",
"z. c #2E007F",
"x. c #35067D",
"c. c #5B2E40",
"v. c #5D2F42",
"b. c #433D47",
"n. c #4E285F",
"m. c #433E55",
"M. c #443E55",
"N. c #682E47",
"B. c #6B314A",
"V. c #68354A",
"C. c #502069",
"Z. c #40207B",
"A. c #482E79",
"S. c #672E73",
"D. c #4E474D",
"F. c #47415A",
"G. c #4A435C",
"H. c #4B445D",
"J. c #4E455F",
"K. c #5A5353",
"L. c #5B5353",
"P. c #4D4363",
"I. c #5C4965",
"U. c #5D5575",
"Y. c #625A76",
"T. c #635B78",
"R. c #6A627B",
"E. c #756178",
"W. c #8D0A11",
"Q. c #A40012",
"!. c #85211B",
"~. c #AA1A2B",
"^. c #8E5030",
"/. c #88533A",
"(. c #874E4C",
"). c #8D5641",
"_. c #8D4F57",
"`. c #A9684D",
"'. c #A96C5D",
"]. c #B06B57",
"[. c #A77458",
"{. c #995666",
"}. c #94526A",
"|. c #9C6360",
" X c #816576",
".X c #BF6A6C",
"XX c #CC5450",
"oX c #C35959",
"OX c #C57C56",
"+X c #C2785B",
"@X c #C98058",
"#X c #CC8159",
"$X c #CC815D",
"%X c #D4865D",
"&X c #D89169",
"*X c #040084",
"=X c #080084",
"-X c #020089",
";X c #2B0085",
":X c #2A0089",
">X c #29008B",
",X c #2B038A",
"<X c #29008C",
"1X c #34108C",
"2X c #39158E",
"3X c #270091",
"4X c #250096",
"5X c #23009B",
"6X c #241498",
"7X c #1600A9",
"8X c #1D00AB",
"9X c #1A00B3",
"0X c #1804B7",
"qX c #1708BB",
"wX c #2100A0",
"eX c #3013A0",
"rX c #1B25B0",
"tX c #023BBB",
"yX c #0347BB",
"uX c #7E7686",
"iX c #0F00CF",
"pX c #1500C1",
"aX c #0F00D0",
"sX c #0B00DA",
"dX c #0A00DE",
"fX c #1128C7",
"gX c #0207E3",
"hX c #0819E2",
"jX c #0200F2",
"kX c #0100F5",
"lX c #0000F7",
"zX c #000AF7",
"xX c #000BF7",
"cX c #001BF7",
"vX c #0833E3",
"bX c #023DF2",
"nX c #003EF7",
"mX c #0044F7",
"MX c #0049F7",
"NX c #005BF7",
"BX c #005DF7",
"VX c #908888",
"CX c #948C91",
"ZX c #968E92",
"AX c #9F9797",
"SX c #9A949E",
"DX c #CCA5AD",
"FX c #F7C29F",
"GX c #C6C2C2",
"HX c #C7C5CF",
"JX c #E8E6E6",
"KX c None",
/* pixels */
"KXKXKXKXKXKXKXKXKXKXKXKXKXKXKXKXKXKXKXKXKXKXKXKXKXKXKXKXKX",
"KXKXKXKXKXKXKXKXKXKXKXKXKXKXKXKXKXKXKXKXKXKXKXKXKXKXKXKXKX",
"KXKXKXKXKXKXKXKXKXKXKXKXKXKXKXKXKXKXKXKXKXKXKXKXKXKXKXKXKX",
"KXKXKXKXKXKXKXKXKXKXKXKXKXKXKXKXKXKXKXKXKXKXKXKXKXKXKXKXKX",
"KXKXKXKXKXKXKXKXKXKXKXKXKXKXKXKXKXKXKXKXKXKXKXKXKXKXKXKXKX",
"KXKXKXKXKXKXKXKXKXKXKXKXKXKXKXKXKXKXKXKXKXKXKXKXKXKXKXKXKX",
"KXKXKXKXKXKXKXKXKXKXKXKXKXKXKXKXKXKXKXKXKXKXKXKXKXKXKXKXKX",
"KXKXKXKXKXKXKXKXKXKXKXKXKXKXKXKXKXKXKXKXKXKXKX2.` KXKXKXKX",
"KXKXKXKXKXKXKXKXKXKXKXKX3.B.>.n n n 5.N.@.KX+.4.r 1 KXKXKX",
"KXKXKXKXKXKXX.^ 9 KXKX6.b 7 - # # # 4 7 K 1.m ; KXKXKXKXKX",
"KXKXKXKXKXKXKXH %.0 W N # # # # # # # # # # / % KXKXKXKXKX",
"KXKXKXKXKXKXKXKXZ 5 # # # # # # # # # # # # # @ & KXKXKXKX",
"KXKXKXKXKXKXy t * # # # # # # # # # # # # # # # X KXKXKXKX",
"KXKXKXKXG ..,.Q # # # # # # # # # # # # # # # # # . KXKXKX",
"KXKXKXKX^.w.3 # # # # # # # # # # # # # # # # # # . KXKXKX",
"KXKXKX7.8.6 < q - # # # # # # # # # # # # # # # # . KXKXKX",
"KXKXKXo.o O 9.V.M # # # # # # # # # # # # # # # # . KXKXKX",
"KXKXKXv KXKX<.M # # # # # # # # # # # # # # # # + : KXKXKX",
"KXKXKXKXKXKXj B 6 = # # # # # # # # # # # # # # , KXKXKXKX",
"KXKXKXKXKXKXKX] [.$.# # # # # # # # # # # # # q ).;.KXKXKX",
"KXKXKXKXKXKXKX0.FX'.# # # # # # # # # # # # #  .+X@Xl KXKX",
"KXKXKXKXKXKXKX-.&X$X&.# # # # # # # # # # # 8 (.%XOX2 KXKX",
"KXKXKXKXKXKXKXKXq.].v.u # # # # # # # # # # C _.`.J KXKXKX",
"KXKXKXKXKXKXKXKXk ! ) O.w # # # # # # # # S _ ( A KXKXKXKX",
"KXKXKXKXKXKXKXKXp.tXyXfXn.:.# # # # # e c.~ KXKXKXKXKXKXKX",
"KXKXKXKXKXKXKXKX=XbXBXBXMXlXlX9X5X5XsX<X5Xt.KXKXKXKXKXKXKX",
"KXKXKXKXKXKXKXKXy.0XnXmXzXlXlXlXlXlXiX4XlX8Xs KXKXKXKXKXKX",
"KXKXKXKXKXKXKXKXI h.qXxXlXlXlXlXlXaX:X3XcXhXL KXKXKXKXKXKX",
"KXKXKXKXKXKXKXKXKXP s.7XjXlXlXlXlXpXl.z.rXNXi.KXKXKXKXKXKX",
"KXKXKXKXKXKXKXKXKXKXa r.dXlXlXlXlXpXl.l.6XvXgXU KXKXKXKXKX",
"KXKXKXKXKXKXKXKXKXKXKXe.dXlXlXlXlXpXl.l.l.4XwXC.*.KXKXKXKX",
"KXKXKXKXKXKXKXKXKXKXKX*XkXlXlXlXlXpXl.k.g.l.l.S.#XV KXKXKX",
"KXKXKXKXKXKXKXKXKXKXKX-XlXlXlXlXlXpXl.j.Y d.x.}.%XF KXKXKX",
"KXKXKXKXKXKXKXKXKXKXKX-XlXlXlXlXlXpXl.l.u.' {.%X/.KXKXKXKX",
"KXKXKXKXKXKXKXKXKXKXKXa.eX2X1X,X>X;Xl.f.d KXi p KXKXKXKXKX",
"KXKXKXKXKXKXKXKXKXKXKXb.ZXAXuXA.Z.Z.Z.P.. KXKXKXKXKXKXKXKX",
"KXKXKXKXKXKXKXKXKXKXKXK.AXCXR.U.U.U.U.[ KXKXKXKXKXKXKXKXKX",
"KXKXKXKXKXKXKXKXKXKXKXL.VX=.|.I.J.g f KXKXKXKXKXKXKXKXKXKX",
"KXKXKXKXKXKXKXKXKXKXKXD.D !.XXc } > KXKXKXKXKXKXKXKXKXKXKX",
"KXKXKXKXKXKXKXKXKXKXKXE W.oXoX#.$   KXKXKXKXKXKXKXKXKXKXKX",
"KXKXKXKXKXKXKXKXKXKXx Q..XJXGXE.|   KXKXKXKXKXKXKXKXKXKXKX",
"KXKXKXKXKXKXKXKXKXKXz ~.DXHXHXSXH.. KXKXKXKXKXKXKXKXKXKXKX",
"KXKXKXKXKXKXKXKXKXKXR  XT.U.U.U.G.. KXKXKXKXKXKXKXKXKXKXKX",
"KXKXKXKXKXKXKXKXKXKXT Y.U.U.U.U.F.KXKXKXKXKXKXKXKXKXKXKXKX",
"KXKXKXKXKXKXKXKXKXKXKX{ M.M.M.m.h KXKXKXKXKXKXKXKXKXKXKXKX",
"KXKXKXKXKXKXKXKXKXKXKXKXKXKXKXKXKXKXKXKXKXKXKXKXKXKXKXKXKX",
"KXKXKXKXKXKXKXKXKXKXKXKXKXKXKXKXKXKXKXKXKXKXKXKXKXKXKXKXKX",
"KXKXKXKXKXKXKXKXKXKXKXKXKXKXKXKXKXKXKXKXKXKXKXKXKXKXKXKXKX",
"KXKXKXKXKXKXKXKXKXKXKXKXKXKXKXKXKXKXKXKXKXKXKXKXKXKXKXKXKX",
"KXKXKXKXKXKXKXKXKXKXKXKXKXKXKXKXKXKXKXKXKXKXKXKXKXKXKXKXKX"
};
