/* XPM */
static char *result[] = {
/* columns rows colors chars-per-pixel */
"58 50 63 1 ",
"  c #2E2E2E",
". c #302D2B",
"X c #2C2F31",
"o c #2C3034",
"O c #27323C",
"+ c #29323B",
"@ c #313232",
"# c #3C3B3B",
"$ c #45423F",
"% c #1F3953",
"& c #1A3D5F",
"* c #253645",
"= c #2D3640",
"- c #23374B",
"; c #22384E",
": c #363D45",
"> c #3A3E40",
", c #333E48",
"< c #213951",
"1 c #1A3D61",
"2 c #2F404F",
"3 c #3D444B",
"4 c #2E4254",
"5 c #2A445C",
"6 c #2F485F",
"7 c #31475C",
"8 c #3E4E5D",
"9 c #184067",
"0 c #16416B",
"q c #0F477C",
"w c #144371",
"e c #1B4772",
"r c #114579",
"t c #1B4C7B",
"y c #2D4760",
"u c #2D4F6F",
"i c #354D64",
"p c #3A4E61",
"a c #314F6B",
"s c #244E75",
"d c #2B4F72",
"f c #234F7A",
"g c #24507B",
"h c #424242",
"j c #4B4947",
"k c #4B4C4C",
"l c #454C53",
"z c #484D52",
"x c #414E5B",
"c c #0B4A86",
"v c #074D8F",
"b c #0A4A89",
"n c #195086",
"m c #16518A",
"M c #044F96",
"N c #0A4F92",
"B c #034F99",
"V c #075097",
"C c #0B5194",
"Z c #05519B",
"A c #085198",
"S c #105190",
"D c #0052A3",
/* pixels */
"DZDZDDDDZZDZDZZDDZDDDDZDDZDZDDZDDZDDDDDDZDZDDDZDDZDZDDBDDZ",
"nnnnmZZCmnmnnmnnnnnnnnnnnmnnnnnmnnnmDZmmmnnmnnnnnmnnnnnmnn",
"888xuCZmp8888888x88888xx88x8888xx8puZCdp888xx8xx888xx8x8xx",
"jjjj8mZtzjjjjjjjjjjjjjjjjjjjjjjjjkj6ZCijjjjjjjkkjjjjjjjjkk",
"####4bZt3#####>#>#>##$#####>>#>$##35Zv5#####h####>>#######",
"@ . -cZw+. @@ @ @@    @o@@@ @.     %VM%o@.X. @X.@.@.@X@@.X",
"    -cZw+.                        X%Zv%X  X     .X        ",
"    -bBw+                         X;Vv%X      X   X       ",
"   .-cZwO                          <Bv%X          X.X.X   ",
"    -cZwO                         X;Zv%X           X      ",
"  ..-cZwo....    . . .       .     <Bv;    . ..  .... .. .",
"*---&vZq%------;------;;--*-*---;-;1ZM1%----------;----;--",
"cbccvZDVbbcccbbcccbccccbbbcbbccbccbvDZNbccccbbbbccccccccbb",
"ZZAZZZZAZVVZZZAZZVZZDZZZAAAAZZZZZZZZZZZAZZZZABZAABZDDZZAAZ",
"uuuuuuuuuuuuuuuuuuusmDCgdduuuuuuuuuuuuuuuuuuuuuddddZZmduuu",
"zzzzzzzzlzzzzzzzzzzxgDmpzzzzzzzzzzzzzzzzzzzzzzzlzz8VZdxzzz",
"kjkzkjkkkkkkkjkkkjkltZm8kkjjjkkjkkkjkkkkkjkkkjkjkkxCAuljkk",
"###@###@###@#######2eZb4########>@#####@#####@####:MB9:###",
"                  .o0Zb*            .             +MB&o   ",
"                   O0Zc*                          +MB1X   ",
"                   o0Zc*            X             OMB1X   ",
"              @    O0Zc*            .             +MB1+   ",
"              @o   O0Zb*              XX          OMB&X   ",
" .  .  . .. .. o ..o0Zb*. .     .  . . @.. .  .  .+MB&X.  ",
"1rwwwewwwwwe1re1wwwrbDVr00wwerwwe1c1re1e1c1ewrwe1rrDBcwwwe",
"DDDDDDDDDDDDDDDDDDDDDDDDDDDDDDDDDDDDDDDDDDDDDDDDDDDDDDDDDD",
"BAAACCDAAZBDDAAZZZZAVZAAZZZAAZZZCCAADDZADDCAZZAABZZAAADAAZ",
"ngggnndndnNDZnnddngggfgggggggggfndnnDDnndndndndnffggnggggg",
"kzzzkkkkzznDnxzzkzkzzzkzkzzzzkzkzzzaZCazzkkkzkzkzzzzkkzkkz",
"hh$hj$h$h3tZn,$hjh$$hhhhhh$hhhhhhhhyZSyhj$hjhhhh$$$hj$h$hh",
"@@@@@@@#@=cDt=@@@@@@@@@@@@@@@@@#@@@<ZN<+@@@@@@@@@@@@@@@@@@",
"         *1D1+X    @  @  .     .  o<Bv<XX  X    . X. X.@  ",
"        XXrBr+X        X.    X.X  X<Zv%X   X              ",
"    X.X.XorDr+      .X  X     X.  X;Bv%               X   ",
"    .X   orBr+X .X  X   X.    .X  X<Zv%X       X         X",
"    X  XXXrDr+  X.XX    .X  X.X.  X<Bv%X             X    ",
"oo*ooo@oX+qBr-+Xoo@XooX+XXXoooooXX+%ZM%Ooooooooooooooooooo",
"111111w100vDN1110000000100000000000qBMq0900000000000000000",
"DZBVDBBBBBBDDBDBMMBBBBBVBBMMBMMMBBBZDZZBBMBBBVBBVBBBBBVVMM",
"SmmmSmmmmmmmnmmSmmmmmmSZDAmmmmmmmmmmnmmmmmmmmmmnmmnmmnmSZD",
"xpp8888pp8888888888p8paNDnxp88888p88888p888888p8888888xuVD",
"kjkjkkkjkkkkkkkjkkkjkkpSDskkkkkkkkjjkkkjjjkkjkkkkkjkjkkiVD",
"hhhhhhhhhhhhhhhhhhhh$h7NDs$hhhhhhhhhhhhh3$hhhhhhhhhhhh$7VD",
"@@@X@.@@@.@X@.@X.X@X@X-bD1..@X.@ @@ @@ @@   @ @@ @ oo@.<MD",
"                     X-bDwXXX.X           o            ;MD",
"        X      X     X-bD1..  .X    o                  ;MZ",
" X  X            X   X-bD0.        o                  .-BZ",
"           X          -ND1.                            ;BD",
"   X    X          X. -bD1X.X..X      o        o@      -BZ",
"              X     XX-bD1XX XX                        ;BZ"
};
